<svg data-v-423bf9ae="" xmlns="http://www.w3.org/2000/svg" viewBox="0 0 549.7085466874698 163" class="iconAbove"><!----><!----><!----><g data-v-423bf9ae="" id="b0dd142e-cfe0-45d6-97ab-9b40218f1f26" fill="black" transform="matrix(4.283164821746525,0,0,4.283164821746525,1.8488939374924485,87.50921906304318)"><path d="M8.83 4.35L8.83 4.35L8.83 4.35Q8.80 4.42 8.77 4.46L8.77 4.46L8.77 4.46Q8.74 4.50 8.72 4.52L8.72 4.52L8.72 4.52Q8.69 4.55 8.67 4.55L8.67 4.55L8.67 4.55Q8.61 4.57 8.45 4.59L8.45 4.59L8.45 4.59Q8.29 4.61 8.00 4.63L8.00 4.63L8.00 4.63Q7.80 4.64 7.44 4.69L7.44 4.69L7.44 4.69Q7.09 4.73 6.63 4.80L6.63 4.80L6.63 4.80Q6.18 4.86 5.65 4.93L5.65 4.93L5.65 4.93Q5.11 5.00 4.54 5.04L4.54 5.04L4.54 5.04Q4.48 6.00 4.46 7L4.46 7L4.46 7Q4.44 8.00 4.42 9.01L4.42 9.01L4.42 9.01Q4.41 10.01 4.40 11.02L4.40 11.02L4.40 11.02Q4.39 12.02 4.37 12.98L4.37 12.98L4.37 12.98Q4.37 13.02 4.34 13.05L4.34 13.05L4.34 13.05Q4.31 13.08 4.30 13.10L4.30 13.10L4.30 13.10Q4.27 13.23 4.18 13.33L4.18 13.33L4.18 13.33Q4.09 13.43 3.99 13.43L3.99 13.43L3.99 13.43Q3.71 13.43 3.55 13.34L3.55 13.34L3.55 13.34Q3.40 13.25 3.29 13.15L3.29 13.15L3.29 13.15Q3.24 13.09 3.20 12.97L3.20 12.97L3.20 12.97Q3.15 12.85 3.12 12.70L3.12 12.70L3.12 12.70Q3.08 12.56 3.06 12.39L3.06 12.39L3.06 12.39Q3.03 12.22 3.02 12.07L3.02 12.07L3.02 12.07Q3.01 11.92 3.00 11.78L3.00 11.78L3.00 11.78Q2.99 11.63 2.99 11.48L2.99 11.48L2.99 11.48Q2.99 11.16 3.01 10.84L3.01 10.84L3.01 10.84Q3.04 10.53 3.05 10.25L3.05 10.25L3.05 10.25Q3.06 10.08 3.07 9.77L3.07 9.77L3.07 9.77Q3.09 9.45 3.12 9.05L3.12 9.05L3.12 9.05Q3.14 8.65 3.18 8.19L3.18 8.19L3.18 8.19Q3.21 7.72 3.26 7.26L3.26 7.26L3.26 7.26Q3.32 6.79 3.38 6.35L3.38 6.35L3.38 6.35Q3.44 5.91 3.51 5.55L3.51 5.55L3.51 5.55Q3.55 5.44 3.58 5.34L3.58 5.34L3.58 5.34Q3.60 5.23 3.62 5.11L3.62 5.11L3.62 5.11Q2.99 5.15 2.39 5.15L2.39 5.15L2.39 5.15Q1.62 5.15 0.92 5.06L0.92 5.06L0.92 5.06Q0.23 4.97-0.27 4.74L-0.27 4.74L-0.27 4.74Q-0.33 4.70-0.34 4.61L-0.34 4.61L-0.34 4.61Q-0.35 4.53-0.39 4.43L-0.39 4.43L-0.39 4.43Q-0.44 4.35-0.43 4.26L-0.43 4.26L-0.43 4.26Q-0.42 4.17-0.42 4.11L-0.42 4.11L-0.42 4.11Q-0.42 4.05-0.38 4.03L-0.38 4.03L-0.38 4.03Q-0.33 4.01-0.20 4.01L-0.20 4.01L-0.20 4.01Q-0.07 4.01 0.17 4.03L0.17 4.03L0.17 4.03Q0.40 4.04 0.79 4.04L0.79 4.04L0.79 4.04Q1.07 4.04 1.44 4.03L1.44 4.03L1.44 4.03Q1.81 4.01 2.28 3.98L2.28 3.98L2.28 3.98Q2.52 3.96 2.96 3.91L2.96 3.91L2.96 3.91Q3.40 3.87 3.95 3.82L3.95 3.82L3.95 3.82Q4.51 3.78 5.14 3.75L5.14 3.75L5.14 3.75Q5.77 3.71 6.38 3.71L6.38 3.71L6.38 3.71Q6.62 3.71 6.90 3.74L6.90 3.74L6.90 3.74Q7.19 3.76 7.48 3.80L7.48 3.80L7.48 3.80Q7.76 3.84 8.00 3.90L8.00 3.90L8.00 3.90Q8.24 3.95 8.40 4.01L8.40 4.01L8.40 4.01Q8.50 4.05 8.52 4.08L8.52 4.08L8.52 4.08Q8.54 4.11 8.54 4.13L8.54 4.13L8.54 4.13Q8.54 4.15 8.53 4.16L8.53 4.16L8.53 4.16Q8.52 4.18 8.57 4.19L8.57 4.19L8.57 4.19Q8.61 4.20 8.65 4.21L8.65 4.21L8.65 4.21Q8.70 4.22 8.74 4.23L8.74 4.23L8.74 4.23Q8.78 4.25 8.81 4.28L8.81 4.28L8.81 4.28Q8.84 4.31 8.83 4.35ZM9.88 8.59L9.88 8.59L9.88 8.59Q9.88 8.78 9.85 8.98L9.85 8.98L9.85 8.98Q9.82 9.17 9.76 9.35L9.76 9.35L9.76 9.35Q9.71 9.52 9.63 9.66L9.63 9.66L9.63 9.66Q9.55 9.80 9.45 9.88L9.45 9.88L9.45 9.88Q9.37 9.95 9.32 9.95L9.32 9.95L9.32 9.95Q9.28 9.95 9.25 9.92L9.25 9.92L9.25 9.92Q9.21 9.89 9.19 9.86L9.19 9.86L9.19 9.86Q9.17 9.82 9.14 9.82L9.14 9.82L9.14 9.82Q9.11 9.81 9.07 9.82L9.07 9.82L9.07 9.82Q9.02 9.83 8.98 9.82L8.98 9.82L8.98 9.82Q8.93 9.82 8.90 9.77L8.90 9.77L8.90 9.77Q8.86 9.73 8.85 9.61L8.85 9.61L8.85 9.61Q8.83 9.48 8.86 9.27L8.86 9.27L8.86 9.27Q8.88 9.06 8.88 8.87L8.88 8.87L8.88 8.87Q8.88 8.69 8.84 8.57L8.84 8.57L8.84 8.57Q8.80 8.45 8.71 8.45L8.71 8.45L8.71 8.45Q8.66 8.45 8.54 8.52L8.54 8.52L8.54 8.52Q8.42 8.59 8.28 8.83L8.28 8.83L8.28 8.83Q8.13 9.06 7.99 9.50L7.99 9.50L7.99 9.50Q7.85 9.94 7.76 10.67L7.76 10.67L7.76 10.67Q7.76 11.61 7.77 12.19L7.77 12.19L7.77 12.19Q7.79 12.76 7.79 13.08L7.79 13.08L7.79 13.08Q7.79 13.36 7.77 13.47L7.77 13.47L7.77 13.47Q7.76 13.59 7.70 13.62L7.70 13.62L7.70 13.62Q7.67 13.64 7.57 13.68L7.57 13.68L7.57 13.68Q7.47 13.71 7.36 13.73L7.36 13.73L7.36 13.73Q7.25 13.76 7.14 13.78L7.14 13.78L7.14 13.78Q7.04 13.80 7.01 13.79L7.01 13.79L7.01 13.79Q6.99 13.79 6.94 13.75L6.94 13.75L6.94 13.75Q6.88 13.71 6.83 13.66L6.83 13.66L6.83 13.66Q6.77 13.60 6.72 13.55L6.72 13.55L6.72 13.55Q6.67 13.49 6.67 13.45L6.67 13.45L6.67 13.45Q6.65 13.38 6.65 13.14L6.65 13.14L6.65 13.14Q6.66 12.89 6.66 12.55L6.66 12.55L6.66 12.55Q6.67 12.21 6.67 11.80L6.67 11.80L6.67 11.80Q6.68 11.40 6.68 10.99L6.68 10.99L6.68 10.99Q6.68 10.73 6.70 10.41L6.70 10.41L6.70 10.41Q6.71 10.10 6.74 9.77L6.74 9.77L6.74 9.77Q6.76 9.44 6.79 9.13L6.79 9.13L6.79 9.13Q6.82 8.81 6.84 8.56L6.84 8.56L6.84 8.56Q6.86 8.31 6.88 8.15L6.88 8.15L6.88 8.15Q6.90 7.98 6.90 7.94L6.90 7.94L6.90 7.94Q6.91 7.89 6.96 7.90L6.96 7.90L6.96 7.90Q7 7.92 7.05 7.95L7.05 7.95L7.05 7.95Q7.10 7.98 7.14 8.01L7.14 8.01L7.14 8.01Q7.18 8.04 7.20 8.01L7.20 8.01L7.20 8.01Q7.21 7.95 7.30 7.99L7.30 7.99L7.30 7.99Q7.39 8.04 7.46 8.09L7.46 8.09L7.46 8.09Q7.49 8.13 7.53 8.15L7.53 8.15L7.53 8.15Q7.57 8.18 7.60 8.21L7.60 8.21L7.60 8.21Q7.64 8.25 7.66 8.31L7.66 8.31L7.66 8.31Q7.68 8.37 7.68 8.48L7.68 8.48L7.68 8.48Q7.68 8.57 7.70 8.76L7.70 8.76L7.70 8.76Q7.71 8.96 7.73 9.21L7.73 9.21L7.73 9.21Q7.81 8.97 7.91 8.70L7.91 8.70L7.91 8.70Q8.02 8.42 8.17 8.19L8.17 8.19L8.17 8.19Q8.32 7.96 8.52 7.81L8.52 7.81L8.52 7.81Q8.73 7.66 9.02 7.66L9.02 7.66L9.02 7.66Q9.17 7.66 9.33 7.72L9.33 7.72L9.33 7.72Q9.49 7.79 9.61 7.91L9.61 7.91L9.61 7.91Q9.74 8.03 9.82 8.20L9.82 8.20L9.82 8.20Q9.89 8.37 9.88 8.59ZM14.48 9.50L14.48 9.50L14.48 9.50Q14.49 9.73 14.44 10.08L14.44 10.08L14.44 10.08Q14.39 10.42 14.33 10.82L14.33 10.82L14.33 10.82Q14.27 11.21 14.21 11.62L14.21 11.62L14.21 11.62Q14.16 12.03 14.16 12.39L14.16 12.39L14.16 12.39Q14.16 12.63 14.19 12.85L14.19 12.85L14.19 12.85Q14.23 13.06 14.31 13.22L14.31 13.22L14.31 13.22Q14.36 13.31 14.36 13.38L14.36 13.38L14.36 13.38Q14.36 13.45 14.35 13.50L14.35 13.50L14.35 13.50Q14.33 13.55 14.32 13.59L14.32 13.59L14.32 13.59Q14.31 13.62 14.32 13.66L14.32 13.66L14.32 13.66Q14.33 13.69 14.31 13.74L14.31 13.74L14.31 13.74Q14.29 13.78 14.25 13.82L14.25 13.82L14.25 13.82Q14.21 13.86 14.16 13.87L14.16 13.87L14.16 13.87Q14.11 13.89 14.07 13.86L14.07 13.86L14.07 13.86Q13.99 13.82 13.95 13.81L13.95 13.81L13.95 13.81Q13.90 13.80 13.87 13.81L13.87 13.81L13.87 13.81Q13.84 13.82 13.82 13.84L13.82 13.84L13.82 13.84Q13.79 13.85 13.76 13.84L13.76 13.84L13.76 13.84Q13.64 13.77 13.51 13.69L13.51 13.69L13.51 13.69Q13.37 13.61 13.33 13.51L13.33 13.51L13.33 13.51Q13.30 13.47 13.28 13.38L13.28 13.38L13.28 13.38Q13.25 13.28 13.24 13.15L13.24 13.15L13.24 13.15Q13.22 13.02 13.21 12.87L13.21 12.87L13.21 12.87Q13.19 12.72 13.19 12.58L13.19 12.58L13.19 12.58Q12.96 13.00 12.70 13.28L12.70 13.28L12.70 13.28Q12.45 13.56 12.19 13.73L12.19 13.73L12.19 13.73Q11.94 13.90 11.69 13.97L11.69 13.97L11.69 13.97Q11.44 14.03 11.23 14.03L11.23 14.03L11.23 14.03Q11.02 14.03 10.86 13.98L10.86 13.98L10.86 13.98Q10.70 13.92 10.61 13.85L10.61 13.85L10.61 13.85Q10.27 13.51 10.13 13.31L10.13 13.31L10.13 13.31Q9.99 13.10 10.01 12.97L10.01 12.97L10.01 12.97Q10.04 12.53 10.22 12.16L10.22 12.16L10.22 12.16Q10.40 11.79 10.66 11.48L10.66 11.48L10.66 11.48Q10.93 11.17 11.26 10.92L11.26 10.92L11.26 10.92Q11.59 10.67 11.94 10.48L11.94 10.48L11.94 10.48Q12.28 10.28 12.62 10.15L12.62 10.15L12.62 10.15Q12.95 10.01 13.23 9.93L13.23 9.93L13.23 9.93Q13.21 9.56 13.20 9.29L13.20 9.29L13.20 9.29Q13.18 9.01 13.15 8.88L13.15 8.88L13.15 8.88Q13.04 8.46 12.83 8.25L12.83 8.25L12.83 8.25Q12.62 8.04 12.32 8.04L12.32 8.04L12.32 8.04Q12.13 8.04 11.93 8.18L11.93 8.18L11.93 8.18Q11.74 8.33 11.58 8.57L11.58 8.57L11.58 8.57Q11.42 8.82 11.32 9.14L11.32 9.14L11.32 9.14Q11.22 9.46 11.22 9.82L11.22 9.82L11.22 9.82Q11.22 9.91 11.22 9.99L11.22 9.99L11.22 9.99Q11.23 10.07 11.25 10.16L11.25 10.16L11.25 10.16Q11.25 10.21 11.21 10.23L11.21 10.23L11.21 10.23Q11.18 10.25 11.12 10.26L11.12 10.26L11.12 10.26Q11.07 10.27 11.01 10.27L11.01 10.27L11.01 10.27Q10.94 10.28 10.90 10.29L10.90 10.29L10.90 10.29Q10.87 10.31 10.85 10.31L10.85 10.31L10.85 10.31Q10.83 10.32 10.81 10.31L10.81 10.31L10.81 10.31Q10.79 10.29 10.76 10.27L10.76 10.27L10.76 10.27Q10.73 10.24 10.67 10.20L10.67 10.20L10.67 10.20Q10.62 10.16 10.56 10.13L10.56 10.13L10.56 10.13Q10.50 10.10 10.46 10.08L10.46 10.08L10.46 10.08Q10.41 10.06 10.38 10.05L10.38 10.05L10.38 10.05Q10.35 10.03 10.35 10.00L10.35 10.00L10.35 10.00Q10.35 9.58 10.54 9.13L10.54 9.13L10.54 9.13Q10.73 8.67 11.04 8.30L11.04 8.30L11.04 8.30Q11.36 7.93 11.78 7.69L11.78 7.69L11.78 7.69Q12.20 7.45 12.67 7.45L12.67 7.45L12.67 7.45Q13.06 7.45 13.34 7.57L13.34 7.57L13.34 7.57Q13.62 7.68 13.82 7.87L13.82 7.87L13.82 7.87Q14.01 8.05 14.14 8.28L14.14 8.28L14.14 8.28Q14.27 8.50 14.34 8.73L14.34 8.73L14.34 8.73Q14.41 8.96 14.44 9.16L14.44 9.16L14.44 9.16Q14.47 9.37 14.48 9.50ZM13.24 11.39L13.24 10.71L13.24 10.71Q13.04 10.79 12.79 10.91L12.79 10.91L12.79 10.91Q12.54 11.03 12.29 11.20L12.29 11.20L12.29 11.20Q12.04 11.37 11.79 11.59L11.79 11.59L11.79 11.59Q11.53 11.81 11.31 12.07L11.31 12.07L11.31 12.07Q11.05 12.38 10.94 12.62L10.94 12.62L10.94 12.62Q10.82 12.86 10.79 13.03L10.79 13.03L10.79 13.03Q10.77 13.19 10.81 13.29L10.81 13.29L10.81 13.29Q10.85 13.38 10.90 13.41L10.90 13.41L10.90 13.41Q11.12 13.49 11.34 13.42L11.34 13.42L11.34 13.42Q11.57 13.36 11.80 13.19L11.80 13.19L11.80 13.19Q12.03 13.02 12.25 12.79L12.25 12.79L12.25 12.79Q12.46 12.55 12.65 12.30L12.65 12.30L12.65 12.30Q12.84 12.05 13.00 11.81L13.00 11.81L13.00 11.81Q13.15 11.57 13.24 11.39L13.24 11.39ZM17.08 7.76L17.08 7.76L17.08 7.76Q17.07 7.81 17.06 7.95L17.06 7.95L17.06 7.95Q17.06 8.09 17.04 8.31L17.04 8.31L17.04 8.31Q17.34 8.22 17.64 8.18L17.64 8.18L17.64 8.18Q17.95 8.13 18.27 8.13L18.27 8.13L18.27 8.13Q18.63 8.13 18.98 8.21L18.98 8.21L18.98 8.21Q19.34 8.29 19.65 8.48L19.65 8.48L19.65 8.48Q19.89 8.62 20.05 8.93L20.05 8.93L20.05 8.93Q20.22 9.25 20.33 9.61L20.33 9.61L20.33 9.61Q20.39 9.82 20.45 10.08L20.45 10.08L20.45 10.08Q20.51 10.34 20.51 10.64L20.51 10.64L20.51 10.64Q20.51 10.90 20.45 11.18L20.45 11.18L20.45 11.18Q20.38 11.46 20.22 11.76L20.22 11.76L20.22 11.76Q20.06 12.06 19.78 12.37L19.78 12.37L19.78 12.37Q19.50 12.68 19.06 13.00L19.06 13.00L19.06 13.00Q18.63 13.30 18.30 13.46L18.30 13.46L18.30 13.46Q17.97 13.62 17.74 13.69L17.74 13.69L17.74 13.69Q17.51 13.75 17.38 13.74L17.38 13.74L17.38 13.74Q17.25 13.74 17.23 13.73L17.23 13.73L17.23 13.73Q17.17 13.69 17.11 13.57L17.11 13.57L17.11 13.57Q17.05 13.46 16.94 13.33L16.94 13.33L16.94 13.33Q16.91 13.29 16.88 13.24L16.88 13.24L16.88 13.24Q16.85 13.20 16.82 13.14L16.82 13.14L16.82 13.14Q16.80 13.79 16.79 14.42L16.79 14.42L16.79 14.42Q16.78 15.05 16.78 15.60L16.78 15.60L16.78 15.60Q16.78 15.94 16.78 16.24L16.78 16.24L16.78 16.24Q16.79 16.54 16.80 16.78L16.80 16.78L16.80 16.78Q16.80 16.86 16.81 16.95L16.81 16.95L16.81 16.95Q16.82 17.04 16.82 17.10L16.82 17.10L16.82 17.10Q16.82 17.17 16.79 17.21L16.79 17.21L16.79 17.21Q16.76 17.25 16.69 17.25L16.69 17.25L16.69 17.25Q16.55 17.25 16.48 17.32L16.48 17.32L16.48 17.32Q16.41 17.38 16.31 17.52L16.31 17.52L16.31 17.52Q16.26 17.58 16.19 17.61L16.19 17.61L16.19 17.61Q16.13 17.64 16.07 17.61L16.07 17.61L16.07 17.61Q16.00 17.58 15.94 17.48L15.94 17.48L15.94 17.48Q15.87 17.38 15.82 17.19L15.82 17.19L15.82 17.19Q15.80 17.10 15.78 16.97L15.78 16.97L15.78 16.97Q15.76 16.84 15.75 16.64L15.75 16.64L15.75 16.64Q15.74 16.43 15.74 16.15L15.74 16.15L15.74 16.15Q15.74 15.87 15.74 15.48L15.74 15.48L15.76 13.11L15.76 13.11Q15.78 12.22 15.83 11.37L15.83 11.37L15.83 11.37Q15.89 10.52 15.96 9.78L15.96 9.78L15.96 9.78Q15.79 9.84 15.65 9.88L15.65 9.88L15.65 9.88Q15.50 9.91 15.47 9.89L15.47 9.89L15.47 9.89Q15.40 9.86 15.38 9.83L15.38 9.83L15.38 9.83Q15.36 9.80 15.35 9.77L15.35 9.77L15.35 9.77Q15.35 9.73 15.34 9.71L15.34 9.71L15.34 9.71Q15.33 9.69 15.28 9.68L15.28 9.68L15.28 9.68Q15.23 9.67 15.20 9.64L15.20 9.64L15.20 9.64Q15.16 9.60 15.15 9.57L15.15 9.57L15.15 9.57Q15.14 9.54 15.16 9.51L15.16 9.51L15.16 9.51Q15.18 9.47 15.23 9.47L15.23 9.47L15.23 9.47Q15.28 9.46 15.24 9.43L15.24 9.43L15.24 9.43Q15.21 9.40 15.18 9.35L15.18 9.35L15.18 9.35Q15.15 9.30 15.16 9.22L15.16 9.22L15.16 9.22Q15.18 9.14 15.33 9.04L15.33 9.04L15.33 9.04Q15.42 8.97 15.62 8.86L15.62 8.86L15.62 8.86Q15.83 8.76 16.11 8.63L16.11 8.63L16.11 8.63Q16.19 8.09 16.27 7.76L16.27 7.76L16.27 7.76Q16.34 7.42 16.41 7.34L16.41 7.34L16.41 7.34Q16.44 7.31 16.45 7.28L16.45 7.28L16.45 7.28Q16.47 7.25 16.48 7.23L16.48 7.23L16.48 7.23Q16.50 7.21 16.52 7.20L16.52 7.20L16.52 7.20Q16.54 7.18 16.59 7.17L16.59 7.17L16.59 7.17Q16.64 7.16 16.67 7.19L16.67 7.19L16.67 7.19Q16.71 7.22 16.74 7.26L16.74 7.26L16.74 7.26Q16.77 7.31 16.80 7.35L16.80 7.35L16.80 7.35Q16.84 7.39 16.88 7.40L16.88 7.40L16.88 7.40Q16.98 7.41 17.04 7.50L17.04 7.50L17.04 7.50Q17.10 7.58 17.08 7.76ZM18.40 9.09L18.40 9.09L18.40 9.09Q18.09 9.09 17.74 9.16L17.74 9.16L17.74 9.16Q17.39 9.23 16.97 9.39L16.97 9.39L16.84 12.35L16.84 12.35Q16.91 12.37 16.98 12.38L16.98 12.38L16.98 12.38Q17.06 12.38 17.15 12.38L17.15 12.38L17.15 12.38Q17.38 12.38 17.67 12.32L17.67 12.32L17.67 12.32Q17.97 12.26 18.28 12.13L18.28 12.13L18.28 12.13Q18.59 12.00 18.89 11.82L18.89 11.82L18.89 11.82Q19.19 11.64 19.42 11.40L19.42 11.40L19.42 11.40Q19.66 11.16 19.80 10.87L19.80 10.87L19.80 10.87Q19.95 10.58 19.95 10.23L19.95 10.23L19.95 10.23Q19.96 10.02 19.86 9.82L19.86 9.82L19.86 9.82Q19.76 9.62 19.57 9.45L19.57 9.45L19.57 9.45Q19.37 9.29 19.08 9.19L19.08 9.19L19.08 9.19Q18.79 9.09 18.40 9.09ZM22.95 7.76L22.95 7.76L22.95 7.76Q22.93 7.81 22.93 7.95L22.93 7.95L22.93 7.95Q22.92 8.09 22.91 8.31L22.91 8.31L22.91 8.31Q23.20 8.22 23.51 8.18L23.51 8.18L23.51 8.18Q23.82 8.13 24.14 8.13L24.14 8.13L24.14 8.13Q24.49 8.13 24.85 8.21L24.85 8.21L24.85 8.21Q25.20 8.29 25.51 8.48L25.51 8.48L25.51 8.48Q25.75 8.62 25.92 8.93L25.92 8.93L25.92 8.93Q26.09 9.25 26.20 9.61L26.20 9.61L26.20 9.61Q26.26 9.82 26.32 10.08L26.32 10.08L26.32 10.08Q26.38 10.34 26.38 10.64L26.38 10.64L26.38 10.64Q26.38 10.90 26.31 11.18L26.31 11.18L26.31 11.18Q26.25 11.46 26.09 11.76L26.09 11.76L26.09 11.76Q25.92 12.06 25.64 12.37L25.64 12.37L25.64 12.37Q25.36 12.68 24.92 13.00L24.92 13.00L24.92 13.00Q24.50 13.30 24.17 13.46L24.17 13.46L24.17 13.46Q23.84 13.62 23.60 13.69L23.60 13.69L23.60 13.69Q23.37 13.75 23.25 13.74L23.25 13.74L23.25 13.74Q23.12 13.74 23.10 13.73L23.10 13.73L23.10 13.73Q23.04 13.69 22.98 13.57L22.98 13.57L22.98 13.57Q22.91 13.46 22.80 13.33L22.80 13.33L22.80 13.33Q22.77 13.29 22.74 13.24L22.74 13.24L22.74 13.24Q22.72 13.20 22.68 13.14L22.68 13.14L22.68 13.14Q22.66 13.79 22.65 14.42L22.65 14.42L22.65 14.42Q22.64 15.05 22.64 15.60L22.64 15.60L22.64 15.60Q22.64 15.94 22.65 16.24L22.65 16.24L22.65 16.24Q22.65 16.54 22.67 16.78L22.67 16.78L22.67 16.78Q22.67 16.86 22.68 16.95L22.68 16.95L22.68 16.95Q22.69 17.04 22.69 17.10L22.69 17.10L22.69 17.10Q22.68 17.17 22.65 17.21L22.65 17.21L22.65 17.21Q22.63 17.25 22.55 17.25L22.55 17.25L22.55 17.25Q22.42 17.25 22.34 17.32L22.34 17.32L22.34 17.32Q22.27 17.38 22.18 17.52L22.18 17.52L22.18 17.52Q22.12 17.58 22.06 17.61L22.06 17.61L22.06 17.61Q22.00 17.64 21.93 17.61L21.93 17.61L21.93 17.61Q21.87 17.58 21.80 17.48L21.80 17.48L21.80 17.48Q21.74 17.38 21.68 17.19L21.68 17.19L21.68 17.19Q21.66 17.10 21.65 16.97L21.65 16.97L21.65 16.97Q21.63 16.84 21.62 16.64L21.62 16.64L21.62 16.64Q21.61 16.43 21.60 16.15L21.60 16.15L21.60 16.15Q21.60 15.87 21.60 15.48L21.60 15.48L21.63 13.11L21.63 13.11Q21.64 12.22 21.70 11.37L21.70 11.37L21.70 11.37Q21.75 10.52 21.83 9.78L21.83 9.78L21.83 9.78Q21.66 9.84 21.51 9.88L21.51 9.88L21.51 9.88Q21.37 9.91 21.33 9.89L21.33 9.89L21.33 9.89Q21.27 9.86 21.25 9.83L21.25 9.83L21.25 9.83Q21.23 9.80 21.22 9.77L21.22 9.77L21.22 9.77Q21.21 9.73 21.20 9.71L21.20 9.71L21.20 9.71Q21.19 9.69 21.14 9.68L21.14 9.68L21.14 9.68Q21.10 9.67 21.06 9.64L21.06 9.64L21.06 9.64Q21.03 9.60 21.02 9.57L21.02 9.57L21.02 9.57Q21.01 9.54 21.02 9.51L21.02 9.51L21.02 9.51Q21.04 9.47 21.10 9.47L21.10 9.47L21.10 9.47Q21.14 9.46 21.11 9.43L21.11 9.43L21.11 9.43Q21.08 9.40 21.04 9.35L21.04 9.35L21.04 9.35Q21.01 9.30 21.03 9.22L21.03 9.22L21.03 9.22Q21.04 9.14 21.20 9.04L21.20 9.04L21.20 9.04Q21.28 8.97 21.49 8.86L21.49 8.86L21.49 8.86Q21.69 8.76 21.98 8.63L21.98 8.63L21.98 8.63Q22.05 8.09 22.13 7.76L22.13 7.76L22.13 7.76Q22.21 7.42 22.27 7.34L22.27 7.34L22.27 7.34Q22.31 7.31 22.32 7.28L22.32 7.28L22.32 7.28Q22.33 7.25 22.35 7.23L22.35 7.23L22.35 7.23Q22.36 7.21 22.38 7.20L22.38 7.20L22.38 7.20Q22.40 7.18 22.46 7.17L22.46 7.17L22.46 7.17Q22.50 7.16 22.54 7.19L22.54 7.19L22.54 7.19Q22.57 7.22 22.60 7.26L22.60 7.26L22.60 7.26Q22.63 7.31 22.67 7.35L22.67 7.35L22.67 7.35Q22.70 7.39 22.75 7.40L22.75 7.40L22.75 7.40Q22.85 7.41 22.90 7.50L22.90 7.50L22.90 7.50Q22.96 7.58 22.95 7.76ZM24.26 9.09L24.26 9.09L24.26 9.09Q23.95 9.09 23.60 9.16L23.60 9.16L23.60 9.16Q23.26 9.23 22.83 9.39L22.83 9.39L22.71 12.35L22.71 12.35Q22.77 12.37 22.85 12.38L22.85 12.38L22.85 12.38Q22.92 12.38 23.02 12.38L23.02 12.38L23.02 12.38Q23.24 12.38 23.54 12.32L23.54 12.32L23.54 12.32Q23.84 12.26 24.14 12.13L24.14 12.13L24.14 12.13Q24.45 12.00 24.75 11.82L24.75 11.82L24.75 11.82Q25.05 11.64 25.29 11.40L25.29 11.40L25.29 11.40Q25.53 11.16 25.67 10.87L25.67 10.87L25.67 10.87Q25.81 10.58 25.82 10.23L25.82 10.23L25.82 10.23Q25.83 10.02 25.73 9.82L25.73 9.82L25.73 9.82Q25.63 9.62 25.43 9.45L25.43 9.45L25.43 9.45Q25.24 9.29 24.94 9.19L24.94 9.19L24.94 9.19Q24.65 9.09 24.26 9.09ZM31.78 11.01L31.78 11.01L31.78 11.01Q31.78 11.08 31.79 11.18L31.79 11.18L31.79 11.18Q31.79 11.29 31.79 11.42L31.79 11.42L31.79 11.42Q31.79 11.58 31.75 11.82L31.75 11.82L31.75 11.82Q31.70 12.07 31.59 12.33L31.59 12.33L31.59 12.33Q31.49 12.60 31.31 12.87L31.31 12.87L31.31 12.87Q31.13 13.13 30.87 13.34L30.87 13.34L30.87 13.34Q30.61 13.56 30.26 13.69L30.26 13.69L30.26 13.69Q29.91 13.82 29.46 13.82L29.46 13.82L29.46 13.82Q29.05 13.82 28.63 13.67L28.63 13.67L28.63 13.67Q28.21 13.51 27.87 13.19L27.87 13.19L27.87 13.19Q27.52 12.87 27.30 12.36L27.30 12.36L27.30 12.36Q27.08 11.86 27.08 11.16L27.08 11.16L27.08 11.16Q27.08 10.73 27.19 10.30L27.19 10.30L27.19 10.30Q27.30 9.88 27.49 9.50L27.49 9.50L27.49 9.50Q27.68 9.13 27.94 8.81L27.94 8.81L27.94 8.81Q28.19 8.49 28.48 8.26L28.48 8.26L28.48 8.26Q28.76 8.03 29.06 7.90L29.06 7.90L29.06 7.90Q29.37 7.77 29.65 7.77L29.65 7.77L29.65 7.77Q30.15 7.77 30.48 7.93L30.48 7.93L30.48 7.93Q30.80 8.09 30.99 8.32L30.99 8.32L30.99 8.32Q31.19 8.55 31.26 8.81L31.26 8.81L31.26 8.81Q31.34 9.08 31.34 9.29L31.34 9.29L31.34 9.29Q31.34 9.50 31.24 9.76L31.24 9.76L31.24 9.76Q31.14 10.02 30.92 10.26L30.92 10.26L30.92 10.26Q30.69 10.49 30.33 10.65L30.33 10.65L30.33 10.65Q29.97 10.81 29.44 10.81L29.44 10.81L29.44 10.81Q29.16 10.81 28.94 10.74L28.94 10.74L28.94 10.74Q28.72 10.66 28.55 10.54L28.55 10.54L28.55 10.54Q28.38 10.42 28.26 10.28L28.26 10.28L28.26 10.28Q28.14 10.14 28.05 10.01L28.05 10.01L28.05 10.01Q27.93 10.44 27.93 11.01L27.93 11.01L27.93 11.01Q27.93 11.40 28.04 11.71L28.04 11.71L28.04 11.71Q28.16 12.02 28.36 12.24L28.36 12.24L28.36 12.24Q28.55 12.46 28.83 12.57L28.83 12.57L28.83 12.57Q29.10 12.69 29.43 12.69L29.43 12.69L29.43 12.69Q29.84 12.69 30.15 12.55L30.15 12.55L30.15 12.55Q30.45 12.41 30.68 12.20L30.68 12.20L30.68 12.20Q30.91 11.98 31.08 11.73L31.08 11.73L31.08 11.73Q31.25 11.48 31.37 11.28L31.37 11.28L31.37 11.28Q31.49 11.07 31.59 10.93L31.59 10.93L31.59 10.93Q31.68 10.79 31.77 10.80L31.77 10.80L31.77 10.80Q31.81 10.80 31.81 10.87L31.81 10.87L31.81 10.87Q31.81 10.90 31.80 10.94L31.80 10.94L31.80 10.94Q31.79 10.97 31.78 11.01ZM29.72 8.46L29.72 8.46L29.72 8.46Q29.60 8.46 29.40 8.51L29.40 8.51L29.40 8.51Q29.21 8.57 28.99 8.70L28.99 8.70L28.99 8.70Q28.78 8.83 28.57 9.05L28.57 9.05L28.57 9.05Q28.36 9.27 28.20 9.61L28.20 9.61L28.20 9.61Q28.29 9.56 28.37 9.53L28.37 9.53L28.37 9.53Q28.44 9.50 28.46 9.50L28.46 9.50L28.46 9.50Q28.48 9.50 28.51 9.52L28.51 9.52L28.51 9.52Q28.66 9.79 28.90 9.90L28.90 9.90L28.90 9.90Q29.13 10.01 29.43 10.01L29.43 10.01L29.43 10.01Q29.66 10.01 29.83 9.94L29.83 9.94L29.83 9.94Q30.00 9.86 30.11 9.73L30.11 9.73L30.11 9.73Q30.21 9.61 30.26 9.46L30.26 9.46L30.26 9.46Q30.31 9.32 30.31 9.17L30.31 9.17L30.31 9.17Q30.31 8.87 30.15 8.66L30.15 8.66L30.15 8.66Q30.00 8.46 29.72 8.46ZM38.48 4.86L38.48 4.86L38.48 4.86Q38.47 5.00 38.44 5.29L38.44 5.29L38.44 5.29Q38.40 5.58 38.35 5.97L38.35 5.97L38.35 5.97Q38.30 6.36 38.25 6.85L38.25 6.85L38.25 6.85Q38.19 7.33 38.14 7.86L38.14 7.86L38.14 7.86Q38.10 8.39 38.07 8.94L38.07 8.94L38.07 8.94Q38.04 9.50 38.04 10.06L38.04 10.06L38.04 10.06Q38.04 10.34 38.05 10.71L38.05 10.71L38.05 10.71Q38.06 11.07 38.08 11.44L38.08 11.44L38.08 11.44Q38.10 11.81 38.12 12.17L38.12 12.17L38.12 12.17Q38.14 12.53 38.15 12.82L38.15 12.82L38.15 12.82Q38.17 13.10 38.17 13.29L38.17 13.29L38.17 13.29Q38.17 13.47 38.14 13.50L38.14 13.50L38.14 13.50Q38.11 13.54 38.06 13.54L38.06 13.54L38.06 13.54Q38.00 13.54 37.95 13.52L37.95 13.52L37.95 13.52Q37.89 13.51 37.84 13.51L37.84 13.51L37.84 13.51Q37.79 13.50 37.77 13.53L37.77 13.53L37.77 13.53Q37.75 13.56 37.72 13.60L37.72 13.60L37.72 13.60Q37.69 13.64 37.64 13.67L37.64 13.67L37.64 13.67Q37.60 13.70 37.54 13.71L37.54 13.71L37.54 13.71Q37.47 13.73 37.41 13.70L37.41 13.70L37.41 13.70Q37.29 13.63 37.19 13.50L37.19 13.50L37.19 13.50Q37.09 13.38 37.07 13.18L37.07 13.18L37.07 13.18Q37.05 13.04 37.04 12.86L37.04 12.86L37.04 12.86Q37.03 12.67 37.02 12.46L37.02 12.46L37.02 12.46Q37.02 12.24 37.01 12.01L37.01 12.01L37.01 12.01Q37.01 11.79 37.01 11.57L37.01 11.57L37.01 11.57Q36.85 12.02 36.62 12.38L36.62 12.38L36.62 12.38Q36.39 12.74 36.13 13.00L36.13 13.00L36.13 13.00Q35.87 13.25 35.58 13.42L35.58 13.42L35.58 13.42Q35.29 13.58 35.01 13.64L35.01 13.64L35.01 13.64Q34.64 13.71 34.24 13.63L34.24 13.63L34.24 13.63Q33.84 13.54 33.50 13.34L33.50 13.34L33.50 13.34Q33.15 13.14 32.90 12.84L32.90 12.84L32.90 12.84Q32.65 12.54 32.57 12.18L32.57 12.18L32.57 12.18Q32.52 11.93 32.50 11.69L32.50 11.69L32.50 11.69Q32.48 11.45 32.48 11.23L32.48 11.23L32.48 11.23Q32.48 10.65 32.62 10.18L32.62 10.18L32.62 10.18Q32.76 9.71 32.99 9.33L32.99 9.33L32.99 9.33Q33.22 8.96 33.49 8.69L33.49 8.69L33.49 8.69Q33.76 8.42 34.01 8.23L34.01 8.23L34.01 8.23Q34.26 8.05 34.46 7.95L34.46 7.95L34.46 7.95Q34.66 7.85 34.75 7.83L34.75 7.83L34.75 7.83Q34.91 7.79 35.08 7.77L35.08 7.77L35.08 7.77Q35.24 7.76 35.39 7.76L35.39 7.76L35.39 7.76Q35.69 7.76 35.95 7.82L35.95 7.82L35.95 7.82Q36.21 7.88 36.43 7.98L36.43 7.98L36.43 7.98Q36.64 8.07 36.81 8.19L36.81 8.19L36.81 8.19Q36.98 8.31 37.10 8.41L37.10 8.41L37.10 8.41Q37.12 8.00 37.14 7.59L37.14 7.59L37.14 7.59Q37.16 7.18 37.18 6.81L37.18 6.81L37.18 6.81Q37.21 6.44 37.23 6.13L37.23 6.13L37.23 6.13Q37.26 5.81 37.29 5.59L37.29 5.59L37.29 5.59Q37.34 5.22 37.40 4.96L37.40 4.96L37.40 4.96Q37.45 4.69 37.50 4.49L37.50 4.49L37.50 4.49Q37.55 4.30 37.60 4.16L37.60 4.16L37.60 4.16Q37.65 4.03 37.70 3.92L37.70 3.92L37.70 3.92Q37.73 3.90 37.79 3.89L37.79 3.89L37.79 3.89Q37.86 3.89 37.94 3.91L37.94 3.91L37.94 3.91Q38.02 3.92 38.11 3.96L38.11 3.96L38.11 3.96Q38.20 3.99 38.27 4.04L38.27 4.04L38.27 4.04Q38.34 4.09 38.39 4.14L38.39 4.14L38.39 4.14Q38.44 4.20 38.47 4.29L38.47 4.29L38.47 4.29Q38.49 4.38 38.50 4.51L38.50 4.51L38.50 4.51Q38.50 4.65 38.48 4.86ZM37.00 9.37L37.00 9.37L37.00 9.37Q37.00 9.28 37.00 9.18L37.00 9.18L37.00 9.18Q37.01 9.07 37.02 8.98L37.02 8.98L37.02 8.98Q36.97 9.02 36.92 9.06L36.92 9.06L36.92 9.06Q36.88 9.10 36.86 9.13L36.86 9.13L36.86 9.13Q36.71 9.30 36.65 9.32L36.65 9.32L36.65 9.32Q36.60 9.34 36.54 9.28L36.54 9.28L36.54 9.28Q36.07 8.81 35.65 8.64L35.65 8.64L35.65 8.64Q35.22 8.48 34.87 8.48L34.87 8.48L34.87 8.48Q34.64 8.48 34.46 8.53L34.46 8.53L34.46 8.53Q34.29 8.58 34.19 8.64L34.19 8.64L34.19 8.64Q34.00 8.75 33.85 8.97L33.85 8.97L33.85 8.97Q33.70 9.19 33.60 9.48L33.60 9.48L33.60 9.48Q33.49 9.77 33.43 10.10L33.43 10.10L33.43 10.10Q33.37 10.43 33.37 10.76L33.37 10.76L33.37 10.76Q33.37 11.11 33.44 11.43L33.44 11.43L33.44 11.43Q33.52 11.75 33.67 12.00L33.67 12.00L33.67 12.00Q33.83 12.24 34.08 12.38L34.08 12.38L34.08 12.38Q34.34 12.52 34.70 12.51L34.70 12.51L34.70 12.51Q35.10 12.49 35.42 12.32L35.42 12.32L35.42 12.32Q35.75 12.15 36.00 11.88L36.00 11.88L36.00 11.88Q36.26 11.61 36.44 11.28L36.44 11.28L36.44 11.28Q36.63 10.94 36.75 10.60L36.75 10.60L36.75 10.60Q36.87 10.26 36.93 9.94L36.93 9.94L36.93 9.94Q37.00 9.62 37.00 9.37ZM49.24 4.58L49.24 4.58L49.24 4.58Q49.18 4.86 48.98 5.13L48.98 5.13L48.98 5.13Q48.77 5.40 48.51 5.59L48.51 5.59L48.51 5.59Q48.47 5.63 48.37 5.67L48.37 5.67L48.37 5.67Q48.28 5.71 48.16 5.75L48.16 5.75L48.16 5.75Q48.05 5.80 47.94 5.83L47.94 5.83L47.94 5.83Q47.83 5.87 47.77 5.87L47.77 5.87L47.77 5.87Q47.71 5.89 47.68 5.87L47.68 5.87L47.68 5.87Q47.65 5.84 47.63 5.82L47.63 5.82L47.63 5.82Q47.60 5.79 47.56 5.77L47.56 5.77L47.56 5.77Q47.52 5.74 47.46 5.74L47.46 5.74L47.46 5.74Q47.37 5.74 47.36 5.70L47.36 5.70L47.36 5.70Q47.34 5.67 47.37 5.56L47.37 5.56L47.37 5.56Q47.39 5.53 47.42 5.47L47.42 5.47L47.42 5.47Q47.46 5.41 47.53 5.31L47.53 5.31L47.53 5.31Q47.58 5.25 47.62 5.17L47.62 5.17L47.62 5.17Q47.66 5.10 47.64 5.03L47.64 5.03L47.64 5.03Q47.61 4.97 47.50 4.93L47.50 4.93L47.50 4.93Q47.39 4.89 47.16 4.89L47.16 4.89L47.16 4.89Q46.92 4.89 46.55 4.95L46.55 4.95L46.55 4.95Q46.14 5.00 45.69 5.15L45.69 5.15L45.69 5.15Q45.25 5.30 44.84 5.50L44.84 5.50L44.84 5.50Q44.43 5.70 44.08 5.93L44.08 5.93L44.08 5.93Q43.73 6.15 43.51 6.37L43.51 6.37L43.51 6.37Q43.29 6.58 43.22 6.77L43.22 6.77L43.22 6.77Q43.16 6.96 43.33 7.08L43.33 7.08L43.33 7.08Q43.47 7.18 43.76 7.25L43.76 7.25L43.76 7.25Q44.06 7.32 44.44 7.38L44.44 7.38L44.44 7.38Q44.82 7.44 45.26 7.50L45.26 7.50L45.26 7.50Q45.70 7.57 46.13 7.66L46.13 7.66L46.13 7.66Q46.57 7.75 46.96 7.88L46.96 7.88L46.96 7.88Q47.35 8.00 47.65 8.20L47.65 8.20L47.65 8.20Q47.87 8.34 48.01 8.47L48.01 8.47L48.01 8.47Q48.15 8.60 48.24 8.73L48.24 8.73L48.24 8.73Q48.33 8.85 48.38 8.97L48.38 8.97L48.38 8.97Q48.44 9.09 48.48 9.21L48.48 9.21L48.48 9.21Q48.51 9.29 48.58 9.38L48.58 9.38L48.58 9.38Q48.65 9.47 48.73 9.60L48.73 9.60L48.73 9.60Q48.82 9.73 48.88 9.90L48.88 9.90L48.88 9.90Q48.95 10.07 48.97 10.29L48.97 10.29L48.97 10.29Q49 10.75 48.79 11.15L48.79 11.15L48.79 11.15Q48.58 11.55 48.25 11.89L48.25 11.89L48.25 11.89Q47.92 12.24 47.52 12.51L47.52 12.51L47.52 12.51Q47.11 12.78 46.74 12.95L46.74 12.95L46.74 12.95Q46.42 13.11 46.06 13.25L46.06 13.25L46.06 13.25Q45.70 13.38 45.32 13.48L45.32 13.48L45.32 13.48Q44.93 13.58 44.54 13.64L44.54 13.64L44.54 13.64Q44.15 13.70 43.76 13.70L43.76 13.70L43.76 13.70Q43.13 13.70 42.57 13.52L42.57 13.52L42.57 13.52Q42.01 13.35 41.60 12.94L41.60 12.94L41.60 12.94Q41.41 12.73 41.32 12.51L41.32 12.51L41.32 12.51Q41.23 12.30 41.23 12.09L41.23 12.09L41.23 12.09Q41.23 11.83 41.33 11.59L41.33 11.59L41.33 11.59Q41.43 11.35 41.60 11.14L41.60 11.14L41.60 11.14Q41.76 10.93 41.96 10.76L41.96 10.76L41.96 10.76Q42.16 10.60 42.35 10.49L42.35 10.49L42.35 10.49Q42.62 10.34 42.91 10.20L42.91 10.20L42.91 10.20Q43.20 10.06 43.49 9.95L43.49 9.95L43.49 9.95Q43.78 9.84 44.08 9.76L44.08 9.76L44.08 9.76Q44.37 9.69 44.65 9.67L44.65 9.67L44.65 9.67Q44.76 9.65 44.94 9.64L44.94 9.64L44.94 9.64Q45.12 9.63 45.27 9.63L45.27 9.63L45.27 9.63Q45.38 9.63 45.45 9.68L45.45 9.68L45.45 9.68Q45.51 9.73 45.50 9.78L45.50 9.78L45.50 9.78Q45.47 9.85 45.38 9.85L45.38 9.85L45.38 9.85Q45.29 9.85 45.18 9.88L45.18 9.88L45.18 9.88Q45.05 9.91 44.92 9.93L44.92 9.93L44.92 9.93Q44.79 9.94 44.69 9.97L44.69 9.97L44.69 9.97Q43.91 10.15 43.37 10.42L43.37 10.42L43.37 10.42Q42.83 10.70 42.52 10.98L42.52 10.98L42.52 10.98Q42.20 11.26 42.08 11.51L42.08 11.51L42.08 11.51Q41.97 11.76 42.01 11.89L42.01 11.89L42.01 11.89Q42.08 12.07 42.27 12.17L42.27 12.17L42.27 12.17Q42.45 12.28 42.68 12.32L42.68 12.32L42.68 12.32Q42.92 12.37 43.16 12.37L43.16 12.37L43.16 12.37Q43.39 12.38 43.57 12.37L43.57 12.37L43.57 12.37Q43.96 12.35 44.45 12.25L44.45 12.25L44.45 12.25Q44.94 12.15 45.44 12.00L45.44 12.00L45.44 12.00Q45.94 11.84 46.42 11.62L46.42 11.62L46.42 11.62Q46.90 11.41 47.27 11.15L47.27 11.15L47.27 11.15Q47.64 10.90 47.87 10.60L47.87 10.60L47.87 10.60Q48.09 10.30 48.09 9.97L48.09 9.97L48.09 9.97Q48.09 9.86 48.06 9.76L48.06 9.76L48.06 9.76Q48.03 9.65 47.97 9.54L47.97 9.54L47.97 9.54Q47.87 9.34 47.58 9.20L47.58 9.20L47.58 9.20Q47.30 9.06 46.90 8.96L46.90 8.96L46.90 8.96Q46.50 8.86 46.03 8.78L46.03 8.78L46.03 8.78Q45.56 8.70 45.11 8.62L45.11 8.62L45.11 8.62Q44.65 8.54 44.24 8.44L44.24 8.44L44.24 8.44Q43.83 8.33 43.55 8.18L43.55 8.18L43.55 8.18Q43.24 8.01 43.09 7.84L43.09 7.84L43.09 7.84Q42.94 7.68 42.92 7.42L42.92 7.42L42.92 7.42Q42.92 7.40 42.88 7.33L42.88 7.33L42.88 7.33Q42.85 7.26 42.80 7.18L42.80 7.18L42.80 7.18Q42.76 7.11 42.72 7.04L42.72 7.04L42.72 7.04Q42.68 6.97 42.66 6.93L42.66 6.93L42.66 6.93Q42.55 6.73 42.55 6.50L42.55 6.50L42.55 6.50Q42.55 6.24 42.67 5.97L42.67 5.97L42.67 5.97Q42.79 5.69 42.96 5.50L42.96 5.50L42.96 5.50Q43.29 5.12 43.83 4.80L43.83 4.80L43.83 4.80Q44.37 4.48 45.00 4.24L45.00 4.24L45.00 4.24Q45.64 4.00 46.31 3.85L46.31 3.85L46.31 3.85Q46.98 3.71 47.58 3.68L47.58 3.68L47.58 3.68Q47.83 3.68 48.14 3.72L48.14 3.72L48.14 3.72Q48.45 3.76 48.71 3.87L48.71 3.87L48.71 3.87Q48.97 3.97 49.13 4.15L49.13 4.15L49.13 4.15Q49.29 4.32 49.24 4.58ZM54.82 10.62L54.82 10.62L54.82 10.62Q54.82 11.33 54.62 11.91L54.62 11.91L54.62 11.91Q54.41 12.48 54.05 12.89L54.05 12.89L54.05 12.89Q53.69 13.29 53.22 13.51L53.22 13.51L53.22 13.51Q52.75 13.73 52.22 13.73L52.22 13.73L52.22 13.73Q52.00 13.73 51.74 13.68L51.74 13.68L51.74 13.68Q51.48 13.62 51.22 13.51L51.22 13.51L51.22 13.51Q50.96 13.39 50.72 13.20L50.72 13.20L50.72 13.20Q50.47 13.01 50.28 12.73L50.28 12.73L50.28 12.73Q50.09 12.45 49.97 12.07L49.97 12.07L49.97 12.07Q49.86 11.70 49.87 11.20L49.87 11.20L49.87 11.20Q49.87 10.64 50.00 10.18L50.00 10.18L50.00 10.18Q50.14 9.72 50.36 9.35L50.36 9.35L50.36 9.35Q50.57 8.99 50.85 8.72L50.85 8.72L50.85 8.72Q51.12 8.46 51.39 8.27L51.39 8.27L51.39 8.27Q51.67 8.09 51.92 8.00L51.92 8.00L51.92 8.00Q52.17 7.92 52.36 7.90L52.36 7.90L52.36 7.90Q52.45 7.90 52.44 7.92L52.44 7.92L52.44 7.92Q52.43 7.95 52.39 7.98L52.39 7.98L52.39 7.98Q52.35 8.02 52.32 8.05L52.32 8.05L52.32 8.05Q52.29 8.09 52.34 8.09L52.34 8.09L52.34 8.09Q52.39 8.11 52.42 8.12L52.42 8.12L52.42 8.12Q52.45 8.13 52.49 8.16L52.49 8.16L52.54 8.09L52.54 8.09Q52.59 8.06 52.63 8.06L52.63 8.06L52.63 8.06Q52.68 8.06 52.71 8.07L52.71 8.07L52.71 8.07Q52.75 8.08 52.77 8.08L52.77 8.08L52.77 8.08Q52.79 8.08 52.79 8.04L52.79 8.04L52.79 8.04Q52.81 7.96 52.85 7.95L52.85 7.95L52.85 7.95Q52.88 7.94 53.02 7.94L53.02 7.94L53.02 7.94Q53.10 7.94 53.27 7.99L53.27 7.99L53.27 7.99Q53.44 8.04 53.64 8.16L53.64 8.16L53.64 8.16Q53.84 8.27 54.05 8.47L54.05 8.47L54.05 8.47Q54.26 8.66 54.43 8.96L54.43 8.96L54.43 8.96Q54.61 9.26 54.71 9.67L54.71 9.67L54.71 9.67Q54.82 10.08 54.82 10.62ZM52.36 8.61L52.36 8.61L52.36 8.61Q52.12 8.76 51.88 9.00L51.88 9.00L51.88 9.00Q51.65 9.25 51.46 9.57L51.46 9.57L51.46 9.57Q51.28 9.89 51.16 10.29L51.16 10.29L51.16 10.29Q51.04 10.68 51.04 11.12L51.04 11.12L51.04 11.12Q51.04 11.59 51.13 11.98L51.13 11.98L51.13 11.98Q51.21 12.36 51.38 12.63L51.38 12.63L51.38 12.63Q51.54 12.90 51.78 13.05L51.78 13.05L51.78 13.05Q52.01 13.19 52.32 13.19L52.32 13.19L52.32 13.19Q52.58 13.19 52.85 13.04L52.85 13.04L52.85 13.04Q53.11 12.89 53.31 12.59L53.31 12.59L53.31 12.59Q53.52 12.29 53.65 11.85L53.65 11.85L53.65 11.85Q53.77 11.40 53.77 10.81L53.77 10.81L53.77 10.81Q53.77 10.22 53.61 9.82L53.61 9.82L53.61 9.82Q53.46 9.41 53.26 9.16L53.26 9.16L53.26 9.16Q53.07 8.91 52.89 8.81L52.89 8.81L52.89 8.81Q52.71 8.70 52.67 8.70L52.67 8.70L52.67 8.70Q52.58 8.70 52.52 8.70L52.52 8.70L52.52 8.70Q52.47 8.70 52.36 8.61ZM60.03 13.46L60.03 13.46L60.03 13.46Q60.03 13.52 59.93 13.61L59.93 13.61L59.93 13.61Q59.83 13.70 59.67 13.70L59.67 13.70L59.67 13.70Q59.62 13.70 59.50 13.65L59.50 13.65L59.50 13.65Q59.37 13.60 59.23 13.51L59.23 13.51L59.23 13.51Q59.10 13.42 58.99 13.29L58.99 13.29L58.99 13.29Q58.88 13.15 58.87 12.98L58.87 12.98L58.87 12.98Q58.86 12.91 58.86 12.77L58.86 12.77L58.86 12.77Q58.86 12.64 58.86 12.46L58.86 12.46L58.86 12.46Q58.86 12.19 58.86 11.85L58.86 11.85L58.86 11.85Q58.86 11.52 58.87 11.18L58.87 11.18L58.87 11.18Q58.82 11.42 58.75 11.69L58.75 11.69L58.75 11.69Q58.69 11.95 58.58 12.21L58.58 12.21L58.58 12.21Q58.48 12.47 58.34 12.72L58.34 12.72L58.34 12.72Q58.21 12.97 58.03 13.21L58.03 13.21L58.03 13.21Q57.93 13.33 57.83 13.42L57.83 13.42L57.83 13.42Q57.72 13.50 57.62 13.56L57.62 13.56L57.62 13.56Q57.52 13.62 57.43 13.64L57.43 13.64L57.43 13.64Q57.34 13.67 57.29 13.67L57.29 13.67L57.29 13.67Q57.26 13.67 57.17 13.61L57.17 13.61L57.17 13.61Q57.07 13.56 56.93 13.46L56.93 13.46L56.93 13.46Q56.80 13.37 56.65 13.26L56.65 13.26L56.65 13.26Q56.50 13.15 56.36 13.03L56.36 13.03L56.36 13.03Q56.23 12.92 56.12 12.82L56.12 12.82L56.12 12.82Q56.01 12.72 55.96 12.66L55.96 12.66L55.96 12.66Q55.91 12.59 55.87 12.43L55.87 12.43L55.87 12.43Q55.84 12.26 55.81 12.02L55.81 12.02L55.81 12.02Q55.78 11.79 55.76 11.48L55.76 11.48L55.76 11.48Q55.75 11.18 55.75 10.84L55.75 10.84L55.75 10.84Q55.75 10.66 55.75 10.36L55.75 10.36L55.75 10.36Q55.76 10.07 55.78 9.73L55.78 9.73L55.78 9.73Q55.80 9.39 55.83 9.05L55.83 9.05L55.83 9.05Q55.86 8.70 55.91 8.43L55.91 8.43L55.91 8.43Q55.95 8.15 56.01 7.97L56.01 7.97L56.01 7.97Q56.08 7.80 56.16 7.80L56.16 7.80L56.16 7.80Q56.21 7.80 56.35 7.83L56.35 7.83L56.35 7.83Q56.49 7.86 56.63 7.86L56.63 7.86L56.63 7.86Q56.84 7.86 56.93 7.82L56.93 7.82L56.93 7.82Q57.01 7.79 57.05 7.79L57.05 7.79L57.05 7.79Q57.12 7.79 57.12 7.90L57.12 7.90L57.12 7.90Q57.12 7.94 57.12 7.97L57.12 7.97L57.12 7.97Q57.12 8.00 57.11 8.04L57.11 8.04L57.11 8.04Q57.10 8.08 57.08 8.25L57.08 8.25L57.08 8.25Q57.05 8.42 57.02 8.69L57.02 8.69L57.02 8.69Q56.98 8.96 56.95 9.29L56.95 9.29L56.95 9.29Q56.92 9.62 56.89 9.98L56.89 9.98L56.89 9.98Q56.85 10.34 56.83 10.71L56.83 10.71L56.83 10.71Q56.81 11.08 56.81 11.42L56.81 11.42L56.81 11.42Q56.81 11.64 56.82 11.87L56.82 11.87L56.82 11.87Q56.83 12.09 56.86 12.28L56.86 12.28L56.86 12.28Q56.89 12.46 56.94 12.57L56.94 12.57L56.94 12.57Q56.98 12.69 57.05 12.69L57.05 12.69L57.05 12.69Q57.11 12.69 57.23 12.63L57.23 12.63L57.23 12.63Q57.34 12.57 57.49 12.39L57.49 12.39L57.49 12.39Q57.65 12.22 57.83 11.89L57.83 11.89L57.83 11.89Q58.02 11.56 58.23 11.02L58.23 11.02L58.23 11.02Q58.45 10.47 58.68 9.68L58.68 9.68L58.68 9.68Q58.92 8.89 59.17 7.80L59.17 7.80L59.17 7.80Q59.17 7.78 59.19 7.77L59.19 7.77L59.19 7.77Q59.21 7.76 59.25 7.76L59.25 7.76L59.25 7.76Q59.34 7.76 59.47 7.78L59.47 7.78L59.47 7.78Q59.61 7.79 59.74 7.82L59.74 7.82L59.74 7.82Q59.86 7.85 59.95 7.90L59.95 7.90L59.95 7.90Q60.05 7.94 60.05 7.98L60.05 7.98L60.05 7.98Q60.05 8.29 60.02 8.65L60.02 8.65L60.02 8.65Q59.99 9.02 59.96 9.40L59.96 9.40L59.96 9.40Q59.92 9.79 59.90 10.19L59.90 10.19L59.90 10.19Q59.87 10.60 59.87 10.99L59.87 10.99L59.87 10.99Q59.87 11.70 59.91 12.35L59.91 12.35L59.91 12.35Q59.96 13.00 60.03 13.46ZM62.58 4.38L62.58 4.38L62.58 4.38Q62.58 4.47 62.57 4.75L62.57 4.75L62.57 4.75Q62.56 5.03 62.54 5.42L62.54 5.42L62.54 5.42Q62.51 5.82 62.49 6.29L62.49 6.29L62.49 6.29Q62.47 6.75 62.44 7.22L62.44 7.22L62.44 7.22Q62.41 7.69 62.39 8.13L62.39 8.13L62.39 8.13Q62.37 8.57 62.36 8.89L62.36 8.89L62.36 8.89Q62.35 9.09 62.35 9.33L62.35 9.33L62.35 9.33Q62.34 9.57 62.34 9.84L62.34 9.84L62.34 9.84Q62.34 10.21 62.35 10.60L62.35 10.60L62.35 10.60Q62.35 10.99 62.36 11.38L62.36 11.38L62.36 11.38Q62.36 11.76 62.37 12.11L62.37 12.11L62.37 12.11Q62.38 12.46 62.39 12.74L62.39 12.74L62.39 12.74Q62.40 13.02 62.40 13.21L62.40 13.21L62.40 13.21Q62.41 13.40 62.41 13.45L62.41 13.45L62.41 13.45Q62.41 13.54 62.37 13.59L62.37 13.59L62.37 13.59Q62.34 13.64 62.30 13.66L62.30 13.66L62.30 13.66Q62.25 13.68 62.21 13.67L62.21 13.67L62.21 13.67Q62.16 13.66 62.13 13.64L62.13 13.64L62.13 13.64Q62.08 13.62 62.06 13.59L62.06 13.59L62.06 13.59Q62.04 13.56 62.02 13.55L62.02 13.55L62.02 13.55Q62.01 13.54 62.00 13.54L62.00 13.54L62.00 13.54Q61.99 13.55 61.98 13.60L61.98 13.60L61.98 13.60Q61.96 13.77 61.90 13.86L61.90 13.86L61.90 13.86Q61.84 13.95 61.78 13.98L61.78 13.98L61.78 13.98Q61.71 14.01 61.66 14L61.66 14L61.66 14Q61.61 13.99 61.59 13.95L61.59 13.95L61.59 13.95Q61.58 13.92 61.55 13.91L61.55 13.91L61.55 13.91Q61.52 13.90 61.48 13.90L61.48 13.90L61.48 13.90Q61.45 13.90 61.42 13.88L61.42 13.88L61.42 13.88Q61.39 13.86 61.38 13.81L61.38 13.81L61.38 13.81Q61.33 13.58 61.31 13.22L61.31 13.22L61.31 13.22Q61.30 12.86 61.30 12.41L61.30 12.41L61.30 12.41Q61.30 12.02 61.30 11.57L61.30 11.57L61.30 11.57Q61.31 11.12 61.31 10.64L61.31 10.64L61.31 10.64Q61.31 10.37 61.31 10.10L61.31 10.10L61.31 10.10Q61.31 9.83 61.30 9.55L61.30 9.55L61.30 9.12L61.30 9.12Q61.30 8.57 61.33 8.01L61.33 8.01L61.33 8.01Q61.35 7.45 61.39 6.94L61.39 6.94L61.39 6.94Q61.43 6.43 61.48 5.97L61.48 5.97L61.48 5.97Q61.53 5.52 61.56 5.17L61.56 5.17L61.56 5.17Q61.60 4.83 61.62 4.61L61.62 4.61L61.62 4.61Q61.64 4.39 61.63 4.33L61.63 4.33L61.63 4.33Q61.63 4.29 61.64 4.27L61.64 4.27L61.64 4.27Q61.66 4.25 61.69 4.24L61.69 4.24L61.69 4.24Q61.72 4.24 61.76 4.23L61.76 4.23L61.76 4.23Q61.79 4.23 61.82 4.22L61.82 4.22L61.82 4.22Q61.87 4.19 61.90 4.20L61.90 4.20L61.90 4.20Q61.93 4.21 61.95 4.23L61.95 4.23L61.95 4.23Q61.97 4.25 61.98 4.28L61.98 4.28L61.98 4.28Q62.00 4.30 62.04 4.30L62.04 4.30L62.04 4.30Q62.08 4.29 62.10 4.28L62.10 4.28L62.10 4.28Q62.13 4.26 62.14 4.24L62.14 4.24L62.14 4.24Q62.16 4.22 62.18 4.21L62.18 4.21L62.18 4.21Q62.19 4.20 62.22 4.20L62.22 4.20L62.22 4.20Q62.28 4.22 62.33 4.22L62.33 4.22L62.33 4.22Q62.38 4.22 62.38 4.20L62.38 4.20L62.38 4.20Q62.39 4.15 62.42 4.15L62.42 4.15L62.42 4.15Q62.45 4.16 62.49 4.19L62.49 4.19L62.49 4.19Q62.53 4.22 62.56 4.26L62.56 4.26L62.56 4.26Q62.58 4.30 62.58 4.38ZM71.21 4.19L71.21 4.19L71.21 4.19Q70.98 4.19 70.63 4.27L70.63 4.27L70.63 4.27Q70.28 4.35 69.88 4.56L69.88 4.56L69.88 4.56Q69.49 4.76 69.09 5.10L69.09 5.10L69.09 5.10Q68.69 5.44 68.38 5.95L68.38 5.95L68.38 5.95Q68.06 6.47 67.86 7.17L67.86 7.17L67.86 7.17Q67.66 7.87 67.66 8.80L67.66 8.80L67.66 8.80Q67.66 9.55 67.81 10.13L67.81 10.13L67.81 10.13Q67.96 10.72 68.22 11.16L68.22 11.16L68.22 11.16Q68.48 11.59 68.82 11.90L68.82 11.90L68.82 11.90Q69.16 12.20 69.53 12.39L69.53 12.39L69.53 12.39Q69.90 12.58 70.28 12.66L70.28 12.66L70.28 12.66Q70.65 12.74 70.98 12.74L70.98 12.74L70.98 12.74Q71.06 12.74 71.13 12.74L71.13 12.74L71.13 12.74Q71.20 12.74 71.28 12.73L71.28 12.73L71.28 12.73Q71.42 12.69 71.62 12.62L71.62 12.62L71.62 12.62Q71.81 12.55 72.02 12.43L72.02 12.43L72.02 12.43Q72.24 12.32 72.44 12.15L72.44 12.15L72.44 12.15Q72.65 11.98 72.81 11.73L72.81 11.73L72.81 11.73Q72.98 11.49 73.09 11.18L73.09 11.18L73.09 11.18Q73.20 10.86 73.21 10.45L73.21 10.45L73.21 10.45Q73.22 10.08 73.13 9.87L73.13 9.87L73.13 9.87Q73.04 9.66 72.93 9.55L72.93 9.55L72.55 9.60L72.55 9.60Q72.25 9.64 71.93 9.71L71.93 9.71L71.93 9.71Q71.62 9.79 71.34 9.86L71.34 9.86L71.34 9.86Q71.06 9.94 70.83 9.99L70.83 9.99L70.83 9.99Q70.61 10.05 70.48 10.04L70.48 10.04L70.48 10.04Q70.38 10.04 70.29 10.01L70.29 10.01L70.29 10.01Q70.21 9.99 70.12 9.94L70.12 9.94L70.12 9.94Q70.03 9.90 69.98 9.82L69.98 9.82L69.98 9.82Q69.95 9.84 69.92 9.84L69.92 9.84L69.92 9.84Q69.90 9.84 69.89 9.83L69.89 9.83L69.89 9.83Q69.87 9.82 69.86 9.80L69.86 9.80L69.86 9.80Q69.86 9.78 69.85 9.75L69.85 9.75L69.85 9.75Q69.84 9.69 69.84 9.57L69.84 9.57L69.84 9.57Q69.80 9.57 69.76 9.54L69.76 9.54L69.76 9.54Q69.74 9.53 69.73 9.51L69.73 9.51L69.73 9.51Q69.69 9.45 69.67 9.40L69.67 9.40L69.67 9.40Q69.64 9.34 69.67 9.30L69.67 9.30L69.67 9.30Q69.69 9.28 69.79 9.22L69.79 9.22L69.79 9.22Q69.89 9.16 70.14 9.08L70.14 9.08L70.14 9.08Q70.38 9.00 70.80 8.89L70.80 8.89L70.80 8.89Q71.22 8.78 71.88 8.65L71.88 8.65L71.88 8.65Q72.73 8.50 73.35 8.44L73.35 8.44L73.35 8.44Q73.97 8.39 74.36 8.39L74.36 8.39L74.36 8.39Q74.58 8.39 74.72 8.40L74.72 8.40L74.72 8.40Q74.85 8.41 74.92 8.42L74.92 8.42L74.92 8.42Q75.08 8.46 75.17 8.52L75.17 8.52L75.17 8.52Q75.27 8.59 75.33 8.64L75.33 8.64L75.33 8.64Q75.35 8.67 75.38 8.71L75.38 8.71L75.38 8.71Q75.43 8.77 75.50 8.93L75.50 8.93L75.50 8.93Q75.57 8.96 75.60 9.02L75.60 9.02L75.60 9.02Q75.61 9.04 75.61 9.06L75.61 9.06L75.61 9.06Q75.59 9.13 75.57 9.23L75.57 9.23L75.57 9.23Q75.55 9.33 75.51 9.33L75.51 9.33L75.51 9.33Q75.49 9.34 75.37 9.34L75.37 9.34L75.37 9.34Q75.25 9.35 75.05 9.37L75.05 9.37L75.05 9.37Q74.85 9.38 74.60 9.40L74.60 9.40L74.60 9.40Q74.34 9.41 74.05 9.44L74.05 9.44L74.05 9.44Q74.19 9.60 74.29 9.82L74.29 9.82L74.29 9.82Q74.38 10.04 74.42 10.29L74.42 10.29L74.42 10.29Q74.46 10.63 74.35 11.01L74.35 11.01L74.35 11.01Q74.24 11.38 74.00 11.75L74.00 11.75L74.00 11.75Q73.77 12.12 73.41 12.46L73.41 12.46L73.41 12.46Q73.06 12.80 72.61 13.05L72.61 13.05L72.61 13.05Q72.17 13.31 71.65 13.46L71.65 13.46L71.65 13.46Q71.13 13.61 70.57 13.61L70.57 13.61L70.57 13.61Q70.24 13.61 69.88 13.56L69.88 13.56L69.88 13.56Q69.52 13.51 69.15 13.40L69.15 13.40L69.15 13.40Q68.77 13.28 68.38 13.08L68.38 13.08L68.38 13.08Q68.00 12.88 67.61 12.58L67.61 12.58L67.61 12.58Q66.88 12.01 66.53 11.11L66.53 11.11L66.53 11.11Q66.17 10.21 66.19 8.91L66.19 8.91L66.19 8.91Q66.19 8.35 66.37 7.76L66.37 7.76L66.37 7.76Q66.55 7.16 66.88 6.59L66.88 6.59L66.88 6.59Q67.21 6.02 67.67 5.51L67.67 5.51L67.67 5.51Q68.13 4.99 68.70 4.59L68.70 4.59L68.70 4.59Q69.26 4.20 69.91 3.95L69.91 3.95L69.91 3.95Q70.57 3.71 71.28 3.68L71.28 3.68L71.28 3.68Q71.50 3.68 71.80 3.72L71.80 3.72L71.80 3.72Q72.10 3.75 72.42 3.83L72.42 3.83L72.42 3.83Q72.73 3.91 73.04 4.03L73.04 4.03L73.04 4.03Q73.35 4.16 73.61 4.33L73.61 4.33L73.61 4.33Q73.86 4.51 74.03 4.75L74.03 4.75L74.03 4.75Q74.20 4.98 74.25 5.28L74.25 5.28L74.25 5.28Q74.29 5.63 74.20 5.91L74.20 5.91L74.20 5.91Q74.11 6.19 73.95 6.38L73.95 6.38L73.95 6.38Q73.79 6.58 73.60 6.68L73.60 6.68L73.60 6.68Q73.42 6.77 73.28 6.77L73.28 6.77L73.28 6.77Q73.19 6.83 73.12 6.86L73.12 6.86L73.12 6.86Q73.05 6.88 72.99 6.89L72.99 6.89L72.99 6.89Q72.93 6.90 72.89 6.89L72.89 6.89L72.89 6.89Q72.84 6.87 72.82 6.84L72.82 6.84L72.82 6.84Q72.79 6.80 72.78 6.76L72.78 6.76L72.78 6.76Q72.77 6.71 72.80 6.64L72.80 6.64L72.80 6.64Q72.65 6.80 72.55 6.88L72.55 6.88L72.55 6.88Q72.45 6.95 72.39 6.98L72.39 6.98L72.39 6.98Q72.32 7.01 72.28 6.99L72.28 6.99L72.28 6.99Q72.21 6.95 72.25 6.92L72.25 6.92L72.25 6.92Q72.29 6.88 72.38 6.82L72.38 6.82L72.38 6.82Q72.47 6.75 72.58 6.63L72.58 6.63L72.58 6.63Q72.70 6.51 72.79 6.30L72.79 6.30L72.79 6.30Q72.83 6.16 72.87 5.97L72.87 5.97L72.87 5.97Q72.91 5.79 72.91 5.59L72.91 5.59L72.91 5.59Q72.91 5.22 72.77 4.95L72.77 4.95L72.77 4.95Q72.63 4.68 72.40 4.51L72.40 4.51L72.40 4.51Q72.17 4.34 71.87 4.27L71.87 4.27L71.87 4.27Q71.56 4.19 71.21 4.19ZM80.20 9.50L80.20 9.50L80.20 9.50Q80.21 9.73 80.16 10.08L80.16 10.08L80.16 10.08Q80.11 10.42 80.05 10.82L80.05 10.82L80.05 10.82Q79.99 11.21 79.93 11.62L79.93 11.62L79.93 11.62Q79.88 12.03 79.88 12.39L79.88 12.39L79.88 12.39Q79.88 12.63 79.91 12.85L79.91 12.85L79.91 12.85Q79.95 13.06 80.03 13.22L80.03 13.22L80.03 13.22Q80.08 13.31 80.08 13.38L80.08 13.38L80.08 13.38Q80.08 13.45 80.07 13.50L80.07 13.50L80.07 13.50Q80.06 13.55 80.04 13.59L80.04 13.59L80.04 13.59Q80.03 13.62 80.04 13.66L80.04 13.66L80.04 13.66Q80.06 13.69 80.04 13.74L80.04 13.74L80.04 13.74Q80.01 13.78 79.97 13.82L79.97 13.82L79.97 13.82Q79.93 13.86 79.88 13.87L79.88 13.87L79.88 13.87Q79.83 13.89 79.79 13.86L79.79 13.86L79.79 13.86Q79.71 13.82 79.67 13.81L79.67 13.81L79.67 13.81Q79.63 13.80 79.59 13.81L79.59 13.81L79.59 13.81Q79.56 13.82 79.54 13.84L79.54 13.84L79.54 13.84Q79.52 13.85 79.48 13.84L79.48 13.84L79.48 13.84Q79.37 13.77 79.23 13.69L79.23 13.69L79.23 13.69Q79.09 13.61 79.05 13.51L79.05 13.51L79.05 13.51Q79.02 13.47 79.00 13.38L79.00 13.38L79.00 13.38Q78.98 13.28 78.96 13.15L78.96 13.15L78.96 13.15Q78.94 13.02 78.93 12.87L78.93 12.87L78.93 12.87Q78.91 12.72 78.91 12.58L78.91 12.58L78.91 12.58Q78.68 13.00 78.43 13.28L78.43 13.28L78.43 13.28Q78.17 13.56 77.91 13.73L77.91 13.73L77.91 13.73Q77.66 13.90 77.41 13.97L77.41 13.97L77.41 13.97Q77.16 14.03 76.95 14.03L76.95 14.03L76.95 14.03Q76.74 14.03 76.58 13.98L76.58 13.98L76.58 13.98Q76.42 13.92 76.33 13.85L76.33 13.85L76.33 13.85Q76.00 13.51 75.85 13.31L75.85 13.31L75.85 13.31Q75.71 13.10 75.73 12.97L75.73 12.97L75.73 12.97Q75.76 12.53 75.94 12.16L75.94 12.16L75.94 12.16Q76.12 11.79 76.38 11.48L76.38 11.48L76.38 11.48Q76.65 11.17 76.98 10.92L76.98 10.92L76.98 10.92Q77.31 10.67 77.66 10.48L77.66 10.48L77.66 10.48Q78.00 10.28 78.34 10.15L78.34 10.15L78.34 10.15Q78.67 10.01 78.95 9.93L78.95 9.93L78.95 9.93Q78.93 9.56 78.92 9.29L78.92 9.29L78.92 9.29Q78.90 9.01 78.87 8.88L78.87 8.88L78.87 8.88Q78.76 8.46 78.55 8.25L78.55 8.25L78.55 8.25Q78.34 8.04 78.04 8.04L78.04 8.04L78.04 8.04Q77.85 8.04 77.65 8.18L77.65 8.18L77.65 8.18Q77.46 8.33 77.30 8.57L77.30 8.57L77.30 8.57Q77.14 8.82 77.04 9.14L77.04 9.14L77.04 9.14Q76.95 9.46 76.94 9.82L76.94 9.82L76.94 9.82Q76.94 9.91 76.95 9.99L76.95 9.99L76.95 9.99Q76.95 10.07 76.97 10.16L76.97 10.16L76.97 10.16Q76.97 10.21 76.94 10.23L76.94 10.23L76.94 10.23Q76.90 10.25 76.84 10.26L76.84 10.26L76.84 10.26Q76.79 10.27 76.73 10.27L76.73 10.27L76.73 10.27Q76.67 10.28 76.62 10.29L76.62 10.29L76.62 10.29Q76.59 10.31 76.57 10.31L76.57 10.31L76.57 10.31Q76.55 10.32 76.53 10.31L76.53 10.31L76.53 10.31Q76.51 10.29 76.48 10.27L76.48 10.27L76.48 10.27Q76.45 10.24 76.39 10.20L76.39 10.20L76.39 10.20Q76.34 10.16 76.28 10.13L76.28 10.13L76.28 10.13Q76.22 10.10 76.18 10.08L76.18 10.08L76.18 10.08Q76.13 10.06 76.10 10.05L76.10 10.05L76.10 10.05Q76.07 10.03 76.07 10.00L76.07 10.00L76.07 10.00Q76.07 9.58 76.26 9.13L76.26 9.13L76.26 9.13Q76.45 8.67 76.76 8.30L76.76 8.30L76.76 8.30Q77.08 7.93 77.50 7.69L77.50 7.69L77.50 7.69Q77.92 7.45 78.39 7.45L78.39 7.45L78.39 7.45Q78.78 7.45 79.06 7.57L79.06 7.57L79.06 7.57Q79.34 7.68 79.54 7.87L79.54 7.87L79.54 7.87Q79.73 8.05 79.86 8.28L79.86 8.28L79.86 8.28Q79.99 8.50 80.06 8.73L80.06 8.73L80.06 8.73Q80.13 8.96 80.16 9.16L80.16 9.16L80.16 9.16Q80.19 9.37 80.20 9.50ZM78.96 11.39L78.96 10.71L78.96 10.71Q78.76 10.79 78.51 10.91L78.51 10.91L78.51 10.91Q78.26 11.03 78.01 11.20L78.01 11.20L78.01 11.20Q77.76 11.37 77.51 11.59L77.51 11.59L77.51 11.59Q77.25 11.81 77.03 12.07L77.03 12.07L77.03 12.07Q76.77 12.38 76.66 12.62L76.66 12.62L76.66 12.62Q76.54 12.86 76.51 13.03L76.51 13.03L76.51 13.03Q76.49 13.19 76.53 13.29L76.53 13.29L76.53 13.29Q76.57 13.38 76.62 13.41L76.62 13.41L76.62 13.41Q76.84 13.49 77.06 13.42L77.06 13.42L77.06 13.42Q77.29 13.36 77.52 13.19L77.52 13.19L77.52 13.19Q77.75 13.02 77.97 12.79L77.97 12.79L77.97 12.79Q78.18 12.55 78.37 12.30L78.37 12.30L78.37 12.30Q78.57 12.05 78.72 11.81L78.72 11.81L78.72 11.81Q78.87 11.57 78.96 11.39L78.96 11.39ZM88.07 13.04L88.07 13.04L88.07 13.04Q88.09 13.09 88.10 13.13L88.10 13.13L88.10 13.13Q88.11 13.16 88.11 13.19L88.11 13.19L88.11 13.19Q88.11 13.25 88.06 13.27L88.06 13.27L88.06 13.27Q88.01 13.28 87.95 13.29L87.95 13.29L87.95 13.29Q87.94 13.30 87.92 13.35L87.92 13.35L87.92 13.35Q87.91 13.41 87.89 13.48L87.89 13.48L87.89 13.48Q87.86 13.55 87.81 13.60L87.81 13.60L87.81 13.60Q87.76 13.66 87.67 13.66L87.67 13.66L87.67 13.66Q87.38 13.64 87.22 13.53L87.22 13.53L87.22 13.53Q87.06 13.43 86.97 13.24L86.97 13.24L86.97 13.24Q86.89 13.06 86.87 12.80L86.87 12.80L86.87 12.80Q86.85 12.54 86.85 12.23L86.85 12.23L86.85 12.23Q86.85 11.86 86.88 11.46L86.88 11.46L86.88 11.46Q86.91 11.05 86.95 10.67L86.95 10.67L86.95 10.67Q86.99 10.29 87.02 9.95L87.02 9.95L87.02 9.95Q87.06 9.61 87.06 9.37L87.06 9.37L87.06 9.37Q87.06 9.02 87.00 8.83L87.00 8.83L87.00 8.83Q86.94 8.64 86.84 8.64L86.84 8.64L86.84 8.64Q86.79 8.64 86.59 8.92L86.59 8.92L86.59 8.92Q86.39 9.21 86.12 9.78L86.12 9.78L86.12 9.78Q85.84 10.36 85.52 11.22L85.52 11.22L85.52 11.22Q85.20 12.09 84.92 13.26L84.92 13.26L84.92 13.26Q84.90 13.31 84.90 13.36L84.90 13.36L84.90 13.36Q84.90 13.42 84.90 13.46L84.90 13.46L84.90 13.46Q84.89 13.51 84.86 13.54L84.86 13.54L84.86 13.54Q84.84 13.57 84.79 13.57L84.79 13.57L84.79 13.57Q84.70 13.57 84.64 13.53L84.64 13.53L84.64 13.53Q84.59 13.49 84.55 13.45L84.55 13.45L84.55 13.45Q84.51 13.41 84.47 13.37L84.47 13.37L84.47 13.37Q84.44 13.33 84.38 13.33L84.38 13.33L84.38 13.33Q84.36 13.33 84.35 13.36L84.35 13.36L84.35 13.36Q84.33 13.38 84.31 13.42L84.31 13.42L84.31 13.42Q84.29 13.46 84.27 13.49L84.27 13.49L84.27 13.49Q84.24 13.51 84.19 13.51L84.19 13.51L84.19 13.51Q84.15 13.51 84.10 13.50L84.10 13.50L84.10 13.50Q84.05 13.48 84.01 13.41L84.01 13.41L84.01 13.41Q83.96 13.34 83.93 13.20L83.93 13.20L83.93 13.20Q83.90 13.06 83.90 12.82L83.90 12.82L83.90 12.51L83.90 12.51Q83.90 12.41 83.92 12.21L83.92 12.21L83.92 12.21Q83.94 12.01 83.96 11.74L83.96 11.74L83.96 11.74Q83.99 11.48 84.02 11.17L84.02 11.17L84.02 11.17Q84.05 10.86 84.07 10.53L84.07 10.53L84.07 10.53Q84.10 10.21 84.11 9.91L84.11 9.91L84.11 9.91Q84.13 9.60 84.13 9.34L84.13 9.34L84.13 9.34Q84.13 8.57 83.94 8.57L83.94 8.57L83.94 8.57Q83.89 8.57 83.83 8.61L83.83 8.61L83.83 8.61Q83.77 8.64 83.68 8.75L83.68 8.75L83.68 8.75Q83.60 8.85 83.48 9.05L83.48 9.05L83.48 9.05Q83.37 9.24 83.23 9.57L83.23 9.57L83.23 9.57Q83.09 9.89 82.91 10.36L82.91 10.36L82.91 10.36Q82.73 10.83 82.51 11.48L82.51 11.48L82.51 11.48Q82.46 11.63 82.40 11.90L82.40 11.90L82.40 11.90Q82.35 12.18 82.30 12.47L82.30 12.47L82.30 12.47Q82.25 12.76 82.22 13.00L82.22 13.00L82.22 13.00Q82.19 13.24 82.19 13.32L82.19 13.32L82.19 13.32Q82.19 13.34 82.12 13.38L82.12 13.38L82.12 13.38Q82.04 13.43 81.95 13.47L81.95 13.47L81.95 13.47Q81.85 13.51 81.75 13.54L81.75 13.54L81.75 13.54Q81.66 13.57 81.60 13.57L81.60 13.57L81.60 13.57Q81.48 13.57 81.42 13.50L81.42 13.50L81.42 13.50Q81.36 13.44 81.33 13.27L81.33 13.27L81.33 13.27Q81.30 13.09 81.30 12.79L81.30 12.79L81.30 12.79Q81.29 12.48 81.29 12.00L81.29 12.00L81.29 12.00Q81.29 11.88 81.30 11.52L81.30 11.52L81.30 11.52Q81.31 11.16 81.34 10.68L81.34 10.68L81.34 10.68Q81.37 10.21 81.41 9.70L81.41 9.70L81.41 9.70Q81.45 9.18 81.50 8.75L81.50 8.75L81.50 8.75Q81.56 8.32 81.63 8.04L81.63 8.04L81.63 8.04Q81.71 7.76 81.81 7.76L81.81 7.76L81.81 7.76Q81.85 7.76 81.89 7.79L81.89 7.79L81.89 7.79Q81.94 7.83 81.97 7.86L81.97 7.86L81.97 7.86Q82.00 7.90 82.03 7.94L82.03 7.94L82.03 7.94Q82.07 7.97 82.10 7.97L82.10 7.97L82.10 7.97Q82.13 7.97 82.16 7.94L82.16 7.94L82.16 7.94Q82.19 7.92 82.21 7.88L82.21 7.88L82.21 7.88Q82.24 7.84 82.26 7.81L82.26 7.81L82.26 7.81Q82.28 7.79 82.30 7.79L82.30 7.79L82.30 7.79Q82.32 7.79 82.36 7.85L82.36 7.85L82.36 7.85Q82.40 7.92 82.44 8.02L82.44 8.02L82.44 8.02Q82.48 8.11 82.51 8.21L82.51 8.21L82.51 8.21Q82.54 8.31 82.54 8.36L82.54 8.36L82.54 8.36Q82.54 8.50 82.51 8.75L82.51 8.75L82.51 8.75Q82.49 9.00 82.46 9.31L82.46 9.31L82.46 9.31Q82.43 9.61 82.40 9.93L82.40 9.93L82.40 9.93Q82.38 10.24 82.38 10.51L82.38 10.51L82.38 10.53L82.38 10.53Q82.47 10.24 82.59 9.93L82.59 9.93L82.59 9.93Q82.71 9.62 82.85 9.32L82.85 9.32L82.85 9.32Q83.00 9.02 83.16 8.76L83.16 8.76L83.16 8.76Q83.32 8.49 83.49 8.29L83.49 8.29L83.49 8.29Q83.67 8.09 83.86 7.98L83.86 7.98L83.86 7.98Q84.04 7.86 84.23 7.86L84.23 7.86L84.23 7.86Q84.46 7.86 84.63 7.94L84.63 7.94L84.63 7.94Q84.80 8.02 84.90 8.16L84.90 8.16L84.90 8.16Q85.00 8.30 85.05 8.48L85.05 8.48L85.05 8.48Q85.10 8.66 85.10 8.87L85.10 8.87L85.10 8.87Q85.10 9.04 85.08 9.28L85.08 9.28L85.08 9.28Q85.05 9.51 85.03 9.79L85.03 9.79L85.03 9.79Q85.00 10.08 84.97 10.41L84.97 10.41L84.97 10.41Q84.95 10.75 84.94 11.15L84.94 11.15L84.94 11.15Q85.03 10.90 85.16 10.56L85.16 10.56L85.16 10.56Q85.29 10.21 85.44 9.84L85.44 9.84L85.44 9.84Q85.59 9.47 85.77 9.11L85.77 9.11L85.77 9.11Q85.94 8.75 86.12 8.46L86.12 8.46L86.12 8.46Q86.30 8.18 86.48 8.00L86.48 8.00L86.48 8.00Q86.66 7.82 86.82 7.82L86.82 7.82L86.82 7.82Q86.87 7.82 87.04 7.85L87.04 7.85L87.04 7.85Q87.21 7.88 87.39 7.94L87.39 7.94L87.39 7.94Q87.58 8.00 87.75 8.08L87.75 8.08L87.75 8.08Q87.91 8.17 87.96 8.28L87.96 8.28L87.96 8.28Q88.02 8.39 88.06 8.60L88.06 8.60L88.06 8.60Q88.11 8.81 88.11 9.16L88.11 9.16L88.11 9.16Q88.11 9.47 88.06 9.90L88.06 9.90L88.06 9.90Q88.02 10.32 87.91 10.92L87.91 10.92L87.91 10.92Q87.88 11.12 87.87 11.31L87.87 11.31L87.87 11.31Q87.86 11.49 87.86 11.67L87.86 11.67L87.86 11.67Q87.86 11.93 87.88 12.15L87.88 12.15L87.88 12.15Q87.90 12.38 87.94 12.56L87.94 12.56L87.94 12.56Q87.97 12.74 88.01 12.86L88.01 12.86L88.01 12.86Q88.04 12.99 88.07 13.04ZM93.67 11.01L93.67 11.01L93.67 11.01Q93.67 11.08 93.67 11.18L93.67 11.18L93.67 11.18Q93.68 11.29 93.68 11.42L93.68 11.42L93.68 11.42Q93.68 11.58 93.63 11.82L93.63 11.82L93.63 11.82Q93.58 12.07 93.48 12.33L93.48 12.33L93.48 12.33Q93.37 12.60 93.19 12.87L93.19 12.87L93.19 12.87Q93.02 13.13 92.76 13.34L92.76 13.34L92.76 13.34Q92.50 13.56 92.15 13.69L92.15 13.69L92.15 13.69Q91.79 13.82 91.34 13.82L91.34 13.82L91.34 13.82Q90.94 13.82 90.52 13.67L90.52 13.67L90.52 13.67Q90.10 13.51 89.75 13.19L89.75 13.19L89.75 13.19Q89.41 12.87 89.19 12.36L89.19 12.36L89.19 12.36Q88.96 11.86 88.96 11.16L88.96 11.16L88.96 11.16Q88.96 10.73 89.08 10.30L89.08 10.30L89.08 10.30Q89.19 9.88 89.38 9.50L89.38 9.50L89.38 9.50Q89.56 9.13 89.82 8.81L89.82 8.81L89.82 8.81Q90.08 8.49 90.36 8.26L90.36 8.26L90.36 8.26Q90.64 8.03 90.95 7.90L90.95 7.90L90.95 7.90Q91.25 7.77 91.54 7.77L91.54 7.77L91.54 7.77Q92.04 7.77 92.36 7.93L92.36 7.93L92.36 7.93Q92.69 8.09 92.88 8.32L92.88 8.32L92.88 8.32Q93.07 8.55 93.15 8.81L93.15 8.81L93.15 8.81Q93.23 9.08 93.23 9.29L93.23 9.29L93.23 9.29Q93.23 9.50 93.13 9.76L93.13 9.76L93.13 9.76Q93.03 10.02 92.80 10.26L92.80 10.26L92.80 10.26Q92.58 10.49 92.22 10.65L92.22 10.65L92.22 10.65Q91.85 10.81 91.33 10.81L91.33 10.81L91.33 10.81Q91.05 10.81 90.83 10.74L90.83 10.74L90.83 10.74Q90.60 10.66 90.43 10.54L90.43 10.54L90.43 10.54Q90.26 10.42 90.14 10.28L90.14 10.28L90.14 10.28Q90.02 10.14 89.94 10.01L89.94 10.01L89.94 10.01Q89.82 10.44 89.82 11.01L89.82 11.01L89.82 11.01Q89.82 11.40 89.93 11.71L89.93 11.71L89.93 11.71Q90.04 12.02 90.24 12.24L90.24 12.24L90.24 12.24Q90.44 12.46 90.71 12.57L90.71 12.57L90.71 12.57Q90.99 12.69 91.31 12.69L91.31 12.69L91.31 12.69Q91.72 12.69 92.03 12.55L92.03 12.55L92.03 12.55Q92.34 12.41 92.57 12.20L92.57 12.20L92.57 12.20Q92.80 11.98 92.97 11.73L92.97 11.73L92.97 11.73Q93.13 11.48 93.26 11.28L93.26 11.28L93.26 11.28Q93.38 11.07 93.47 10.93L93.47 10.93L93.47 10.93Q93.56 10.79 93.65 10.80L93.65 10.80L93.65 10.80Q93.69 10.80 93.69 10.87L93.69 10.87L93.69 10.87Q93.69 10.90 93.69 10.94L93.69 10.94L93.69 10.94Q93.68 10.97 93.67 11.01ZM91.61 8.46L91.61 8.46L91.61 8.46Q91.49 8.46 91.29 8.51L91.29 8.51L91.29 8.51Q91.10 8.57 90.88 8.70L90.88 8.70L90.88 8.70Q90.67 8.83 90.45 9.05L90.45 9.05L90.45 9.05Q90.24 9.27 90.08 9.61L90.08 9.61L90.08 9.61Q90.18 9.56 90.25 9.53L90.25 9.53L90.25 9.53Q90.32 9.50 90.35 9.50L90.35 9.50L90.35 9.50Q90.36 9.50 90.39 9.52L90.39 9.52L90.39 9.52Q90.55 9.79 90.78 9.90L90.78 9.90L90.78 9.90Q91.02 10.01 91.31 10.01L91.31 10.01L91.31 10.01Q91.55 10.01 91.71 9.94L91.71 9.94L91.71 9.94Q91.88 9.86 91.99 9.73L91.99 9.73L91.99 9.73Q92.10 9.61 92.15 9.46L92.15 9.46L92.15 9.46Q92.20 9.32 92.20 9.17L92.20 9.17L92.20 9.17Q92.20 8.87 92.04 8.66L92.04 8.66L92.04 8.66Q91.88 8.46 91.61 8.46ZM104.45 4.58L104.45 4.58L104.45 4.58Q104.39 4.86 104.18 5.13L104.18 5.13L104.18 5.13Q103.97 5.40 103.71 5.59L103.71 5.59L103.71 5.59Q103.68 5.63 103.58 5.67L103.58 5.67L103.58 5.67Q103.48 5.71 103.37 5.75L103.37 5.75L103.37 5.75Q103.26 5.80 103.15 5.83L103.15 5.83L103.15 5.83Q103.04 5.87 102.98 5.87L102.98 5.87L102.98 5.87Q102.92 5.89 102.89 5.87L102.89 5.87L102.89 5.87Q102.86 5.84 102.83 5.82L102.83 5.82L102.83 5.82Q102.81 5.79 102.77 5.77L102.77 5.77L102.77 5.77Q102.73 5.74 102.66 5.74L102.66 5.74L102.66 5.74Q102.58 5.74 102.56 5.70L102.56 5.70L102.56 5.70Q102.55 5.67 102.58 5.56L102.58 5.56L102.58 5.56Q102.59 5.53 102.63 5.47L102.63 5.47L102.63 5.47Q102.66 5.41 102.74 5.31L102.74 5.31L102.74 5.31Q102.79 5.25 102.83 5.17L102.83 5.17L102.83 5.17Q102.87 5.10 102.84 5.03L102.84 5.03L102.84 5.03Q102.82 4.97 102.71 4.93L102.71 4.93L102.71 4.93Q102.60 4.89 102.37 4.89L102.37 4.89L102.37 4.89Q102.13 4.89 101.75 4.95L101.75 4.95L101.75 4.95Q101.34 5.00 100.90 5.15L100.90 5.15L100.90 5.15Q100.46 5.30 100.05 5.50L100.05 5.50L100.05 5.50Q99.63 5.70 99.29 5.93L99.29 5.93L99.29 5.93Q98.94 6.15 98.71 6.37L98.71 6.37L98.71 6.37Q98.49 6.58 98.43 6.77L98.43 6.77L98.43 6.77Q98.37 6.96 98.53 7.08L98.53 7.08L98.53 7.08Q98.68 7.18 98.97 7.25L98.97 7.25L98.97 7.25Q99.26 7.32 99.65 7.38L99.65 7.38L99.65 7.38Q100.03 7.44 100.47 7.50L100.47 7.50L100.47 7.50Q100.91 7.57 101.34 7.66L101.34 7.66L101.34 7.66Q101.77 7.75 102.17 7.88L102.17 7.88L102.17 7.88Q102.56 8.00 102.86 8.20L102.86 8.20L102.86 8.20Q103.07 8.34 103.22 8.47L103.22 8.47L103.22 8.47Q103.36 8.60 103.45 8.73L103.45 8.73L103.45 8.73Q103.54 8.85 103.59 8.97L103.59 8.97L103.59 8.97Q103.65 9.09 103.69 9.21L103.69 9.21L103.69 9.21Q103.71 9.29 103.79 9.38L103.79 9.38L103.79 9.38Q103.86 9.47 103.94 9.60L103.94 9.60L103.94 9.60Q104.02 9.73 104.09 9.90L104.09 9.90L104.09 9.90Q104.16 10.07 104.18 10.29L104.18 10.29L104.18 10.29Q104.21 10.75 104.00 11.15L104.00 11.15L104.00 11.15Q103.79 11.55 103.46 11.89L103.46 11.89L103.46 11.89Q103.13 12.24 102.72 12.51L102.72 12.51L102.72 12.51Q102.32 12.78 101.95 12.95L101.95 12.95L101.95 12.95Q101.63 13.11 101.27 13.25L101.27 13.25L101.27 13.25Q100.91 13.38 100.52 13.48L100.52 13.48L100.52 13.48Q100.14 13.58 99.75 13.64L99.75 13.64L99.75 13.64Q99.35 13.70 98.97 13.70L98.97 13.70L98.97 13.70Q98.33 13.70 97.78 13.52L97.78 13.52L97.78 13.52Q97.22 13.35 96.81 12.94L96.81 12.94L96.81 12.94Q96.61 12.73 96.52 12.51L96.52 12.51L96.52 12.51Q96.43 12.30 96.43 12.09L96.43 12.09L96.43 12.09Q96.43 11.83 96.54 11.59L96.54 11.59L96.54 11.59Q96.64 11.35 96.80 11.14L96.80 11.14L96.80 11.14Q96.97 10.93 97.17 10.76L97.17 10.76L97.17 10.76Q97.36 10.60 97.56 10.49L97.56 10.49L97.56 10.49Q97.82 10.34 98.11 10.20L98.11 10.20L98.11 10.20Q98.40 10.06 98.70 9.95L98.70 9.95L98.70 9.95Q98.99 9.84 99.29 9.76L99.29 9.76L99.29 9.76Q99.58 9.69 99.85 9.67L99.85 9.67L99.85 9.67Q99.97 9.65 100.15 9.64L100.15 9.64L100.15 9.64Q100.32 9.63 100.48 9.63L100.48 9.63L100.48 9.63Q100.58 9.63 100.65 9.68L100.65 9.68L100.65 9.68Q100.72 9.73 100.71 9.78L100.71 9.78L100.71 9.78Q100.67 9.85 100.59 9.85L100.59 9.85L100.59 9.85Q100.50 9.85 100.39 9.88L100.39 9.88L100.39 9.88Q100.26 9.91 100.13 9.93L100.13 9.93L100.13 9.93Q100.00 9.94 99.89 9.97L99.89 9.97L99.89 9.97Q99.11 10.15 98.58 10.42L98.58 10.42L98.58 10.42Q98.04 10.70 97.72 10.98L97.72 10.98L97.72 10.98Q97.41 11.26 97.29 11.51L97.29 11.51L97.29 11.51Q97.17 11.76 97.22 11.89L97.22 11.89L97.22 11.89Q97.29 12.07 97.47 12.17L97.47 12.17L97.47 12.17Q97.66 12.28 97.89 12.32L97.89 12.32L97.89 12.32Q98.12 12.37 98.36 12.37L98.36 12.37L98.36 12.37Q98.60 12.38 98.77 12.37L98.77 12.37L98.77 12.37Q99.17 12.35 99.66 12.25L99.66 12.25L99.66 12.25Q100.15 12.15 100.65 12.00L100.65 12.00L100.65 12.00Q101.15 11.84 101.63 11.62L101.63 11.62L101.63 11.62Q102.11 11.41 102.48 11.15L102.48 11.15L102.48 11.15Q102.85 10.90 103.07 10.60L103.07 10.60L103.07 10.60Q103.30 10.30 103.30 9.97L103.30 9.97L103.30 9.97Q103.30 9.86 103.27 9.76L103.27 9.76L103.27 9.76Q103.24 9.65 103.18 9.54L103.18 9.54L103.18 9.54Q103.08 9.34 102.79 9.20L102.79 9.20L102.79 9.20Q102.50 9.06 102.10 8.96L102.10 8.96L102.10 8.96Q101.71 8.86 101.24 8.78L101.24 8.78L101.24 8.78Q100.77 8.70 100.31 8.62L100.31 8.62L100.31 8.62Q99.86 8.54 99.45 8.44L99.45 8.44L99.45 8.44Q99.04 8.33 98.76 8.18L98.76 8.18L98.76 8.18Q98.44 8.01 98.30 7.84L98.30 7.84L98.30 7.84Q98.15 7.68 98.13 7.42L98.13 7.42L98.13 7.42Q98.12 7.40 98.09 7.33L98.09 7.33L98.09 7.33Q98.05 7.26 98.01 7.18L98.01 7.18L98.01 7.18Q97.97 7.11 97.92 7.04L97.92 7.04L97.92 7.04Q97.88 6.97 97.86 6.93L97.86 6.93L97.86 6.93Q97.75 6.73 97.75 6.50L97.75 6.50L97.75 6.50Q97.75 6.24 97.87 5.97L97.87 5.97L97.87 5.97Q97.99 5.69 98.17 5.50L98.17 5.50L98.17 5.50Q98.50 5.12 99.04 4.80L99.04 4.80L99.04 4.80Q99.57 4.48 100.21 4.24L100.21 4.24L100.21 4.24Q100.84 4.00 101.52 3.85L101.52 3.85L101.52 3.85Q102.19 3.71 102.79 3.68L102.79 3.68L102.79 3.68Q103.04 3.68 103.35 3.72L103.35 3.72L103.35 3.72Q103.65 3.76 103.92 3.87L103.92 3.87L103.92 3.87Q104.18 3.97 104.34 4.15L104.34 4.15L104.34 4.15Q104.49 4.32 104.45 4.58ZM107.19 5.46L107.19 5.46L107.19 5.46Q107.19 5.50 107.17 5.68L107.17 5.68L107.17 5.68Q107.16 5.85 107.14 6.14L107.14 6.14L107.14 6.14Q107.11 6.43 107.08 6.81L107.08 6.81L107.08 6.81Q107.04 7.18 107.01 7.62L107.01 7.62L107.01 7.62Q107.44 7.57 107.83 7.54L107.83 7.54L107.83 7.54Q108.21 7.51 108.48 7.51L108.48 7.51L108.48 7.51Q108.57 7.51 108.64 7.54L108.64 7.54L108.64 7.54Q108.71 7.57 108.75 7.62L108.75 7.62L108.75 7.62Q108.79 7.66 108.82 7.71L108.82 7.71L108.82 7.71Q108.85 7.77 108.86 7.80L108.86 7.80L108.86 7.80Q108.86 7.83 108.86 7.86L108.86 7.86L108.86 7.86Q108.87 7.90 108.87 7.93L108.87 7.93L108.87 7.93Q108.87 8.07 108.75 8.20L108.75 8.20L108.75 8.20Q108.63 8.34 108.39 8.37L108.39 8.37L106.93 8.53L106.93 8.53Q106.90 9.02 106.87 9.54L106.87 9.54L106.87 9.54Q106.85 10.06 106.82 10.58L106.82 10.58L106.82 10.58Q106.80 11.09 106.78 11.59L106.78 11.59L106.78 11.59Q106.77 12.09 106.77 12.54L106.77 12.54L106.77 12.54Q106.77 12.82 106.78 13.00L106.78 13.00L106.78 13.00Q106.80 13.18 106.80 13.23L106.80 13.23L106.80 13.23Q106.80 13.35 106.75 13.46L106.75 13.46L106.75 13.46Q106.71 13.58 106.65 13.67L106.65 13.67L106.65 13.67Q106.59 13.76 106.53 13.82L106.53 13.82L106.53 13.82Q106.46 13.88 106.42 13.88L106.42 13.88L106.42 13.88Q106.18 13.88 106.03 13.72L106.03 13.72L106.03 13.72Q105.89 13.57 105.82 13.31L105.82 13.31L105.82 13.31Q105.75 13.05 105.72 12.71L105.72 12.71L105.72 12.71Q105.70 12.38 105.70 12.02L105.70 12.02L105.70 12.02Q105.70 11.16 105.75 10.31L105.75 10.31L105.75 10.31Q105.80 9.45 105.89 8.65L105.89 8.65L105.03 8.76L105.03 8.76Q105.01 8.76 104.99 8.76L104.99 8.76L104.99 8.76Q104.97 8.77 104.95 8.77L104.95 8.77L104.95 8.77Q104.82 8.77 104.74 8.71L104.74 8.71L104.74 8.71Q104.66 8.65 104.62 8.57L104.62 8.57L104.62 8.57Q104.58 8.48 104.57 8.40L104.57 8.40L104.57 8.40Q104.56 8.31 104.56 8.26L104.56 8.26L104.56 8.26Q104.56 8.17 104.58 8.09L104.58 8.09L104.58 8.09Q104.61 8.00 104.69 7.98L104.69 7.98L104.69 7.98Q104.83 7.93 105.19 7.86L105.19 7.86L105.19 7.86Q105.55 7.80 106.00 7.73L106.00 7.73L106.00 7.73Q106.07 7.18 106.15 6.72L106.15 6.72L106.15 6.72Q106.23 6.25 106.31 5.92L106.31 5.92L106.31 5.92Q106.38 5.58 106.45 5.39L106.45 5.39L106.45 5.39Q106.51 5.20 106.56 5.20L106.56 5.20L106.56 5.20Q106.57 5.20 106.59 5.21L106.59 5.21L106.59 5.21Q106.61 5.22 106.63 5.22L106.63 5.22L106.63 5.22Q106.67 5.22 106.69 5.17L106.69 5.17L106.69 5.17Q106.72 5.13 106.78 5.13L106.78 5.13L106.78 5.13Q106.85 5.13 106.92 5.16L106.92 5.16L106.92 5.16Q106.99 5.20 107.05 5.26L107.05 5.26L107.05 5.26Q107.11 5.31 107.15 5.37L107.15 5.37L107.15 5.37Q107.19 5.43 107.19 5.46ZM112.92 13.46L112.92 13.46L112.92 13.46Q112.92 13.52 112.81 13.61L112.81 13.61L112.81 13.61Q112.71 13.70 112.55 13.70L112.55 13.70L112.55 13.70Q112.51 13.70 112.38 13.65L112.38 13.65L112.38 13.65Q112.25 13.60 112.12 13.51L112.12 13.51L112.12 13.51Q111.98 13.42 111.87 13.29L111.87 13.29L111.87 13.29Q111.76 13.15 111.75 12.98L111.75 12.98L111.75 12.98Q111.74 12.91 111.74 12.77L111.74 12.77L111.74 12.77Q111.74 12.64 111.74 12.46L111.74 12.46L111.74 12.46Q111.74 12.19 111.74 11.85L111.74 11.85L111.74 11.85Q111.74 11.52 111.75 11.18L111.75 11.18L111.75 11.18Q111.71 11.42 111.64 11.69L111.64 11.69L111.64 11.69Q111.57 11.95 111.47 12.21L111.47 12.21L111.47 12.21Q111.36 12.47 111.23 12.72L111.23 12.72L111.23 12.72Q111.09 12.97 110.91 13.21L110.91 13.21L110.91 13.21Q110.82 13.33 110.71 13.42L110.71 13.42L110.71 13.42Q110.61 13.50 110.50 13.56L110.50 13.56L110.50 13.56Q110.40 13.62 110.31 13.64L110.31 13.64L110.31 13.64Q110.22 13.67 110.17 13.67L110.17 13.67L110.17 13.67Q110.15 13.67 110.05 13.61L110.05 13.61L110.05 13.61Q109.95 13.56 109.82 13.46L109.82 13.46L109.82 13.46Q109.68 13.37 109.53 13.26L109.53 13.26L109.53 13.26Q109.38 13.15 109.25 13.03L109.25 13.03L109.25 13.03Q109.11 12.92 109.00 12.82L109.00 12.82L109.00 12.82Q108.89 12.72 108.84 12.66L108.84 12.66L108.84 12.66Q108.79 12.59 108.76 12.43L108.76 12.43L108.76 12.43Q108.72 12.26 108.69 12.02L108.69 12.02L108.69 12.02Q108.66 11.79 108.65 11.48L108.65 11.48L108.65 11.48Q108.63 11.18 108.63 10.84L108.63 10.84L108.63 10.84Q108.63 10.66 108.64 10.36L108.64 10.36L108.64 10.36Q108.64 10.07 108.66 9.73L108.66 9.73L108.66 9.73Q108.68 9.39 108.72 9.05L108.72 9.05L108.72 9.05Q108.75 8.70 108.79 8.43L108.79 8.43L108.79 8.43Q108.83 8.15 108.90 7.97L108.90 7.97L108.90 7.97Q108.96 7.80 109.04 7.80L109.04 7.80L109.04 7.80Q109.09 7.80 109.23 7.83L109.23 7.83L109.23 7.83Q109.37 7.86 109.51 7.86L109.51 7.86L109.51 7.86Q109.72 7.86 109.81 7.82L109.81 7.82L109.81 7.82Q109.89 7.79 109.94 7.79L109.94 7.79L109.94 7.79Q110.00 7.79 110.00 7.90L110.00 7.90L110.00 7.90Q110.00 7.94 110.00 7.97L110.00 7.97L110.00 7.97Q110.00 8.00 109.99 8.04L109.99 8.04L109.99 8.04Q109.98 8.08 109.96 8.25L109.96 8.25L109.96 8.25Q109.94 8.42 109.90 8.69L109.90 8.69L109.90 8.69Q109.87 8.96 109.83 9.29L109.83 9.29L109.83 9.29Q109.80 9.62 109.77 9.98L109.77 9.98L109.77 9.98Q109.74 10.34 109.72 10.71L109.72 10.71L109.72 10.71Q109.70 11.08 109.70 11.42L109.70 11.42L109.70 11.42Q109.70 11.64 109.71 11.87L109.71 11.87L109.71 11.87Q109.72 12.09 109.74 12.28L109.74 12.28L109.74 12.28Q109.77 12.46 109.82 12.57L109.82 12.57L109.82 12.57Q109.87 12.69 109.94 12.69L109.94 12.69L109.94 12.69Q110.00 12.69 110.11 12.63L110.11 12.63L110.11 12.63Q110.22 12.57 110.38 12.39L110.38 12.39L110.38 12.39Q110.53 12.22 110.71 11.89L110.71 11.89L110.71 11.89Q110.90 11.56 111.11 11.02L111.11 11.02L111.11 11.02Q111.33 10.47 111.57 9.68L111.57 9.68L111.57 9.68Q111.80 8.89 112.05 7.80L112.05 7.80L112.05 7.80Q112.05 7.78 112.07 7.77L112.07 7.77L112.07 7.77Q112.10 7.76 112.13 7.76L112.13 7.76L112.13 7.76Q112.22 7.76 112.36 7.78L112.36 7.78L112.36 7.78Q112.49 7.79 112.62 7.82L112.62 7.82L112.62 7.82Q112.75 7.85 112.84 7.90L112.84 7.90L112.84 7.90Q112.93 7.94 112.93 7.98L112.93 7.98L112.93 7.98Q112.93 8.29 112.90 8.65L112.90 8.65L112.90 8.65Q112.88 9.02 112.84 9.40L112.84 9.40L112.84 9.40Q112.81 9.79 112.78 10.19L112.78 10.19L112.78 10.19Q112.75 10.60 112.75 10.99L112.75 10.99L112.75 10.99Q112.75 11.70 112.80 12.35L112.80 12.35L112.80 12.35Q112.84 13.00 112.92 13.46ZM119.89 4.86L119.89 4.86L119.89 4.86Q119.88 5.00 119.85 5.29L119.85 5.29L119.85 5.29Q119.81 5.58 119.76 5.97L119.76 5.97L119.76 5.97Q119.71 6.36 119.66 6.85L119.66 6.85L119.66 6.85Q119.60 7.33 119.55 7.86L119.55 7.86L119.55 7.86Q119.51 8.39 119.48 8.94L119.48 8.94L119.48 8.94Q119.44 9.50 119.44 10.06L119.44 10.06L119.44 10.06Q119.44 10.34 119.46 10.71L119.46 10.71L119.46 10.71Q119.47 11.07 119.49 11.44L119.49 11.44L119.49 11.44Q119.51 11.81 119.53 12.17L119.53 12.17L119.53 12.17Q119.55 12.53 119.56 12.82L119.56 12.82L119.56 12.82Q119.57 13.10 119.57 13.29L119.57 13.29L119.57 13.29Q119.57 13.47 119.55 13.50L119.55 13.50L119.55 13.50Q119.52 13.54 119.46 13.54L119.46 13.54L119.46 13.54Q119.41 13.54 119.36 13.52L119.36 13.52L119.36 13.52Q119.30 13.51 119.25 13.51L119.25 13.51L119.25 13.51Q119.20 13.50 119.18 13.53L119.18 13.53L119.18 13.53Q119.16 13.56 119.13 13.60L119.13 13.60L119.13 13.60Q119.10 13.64 119.05 13.67L119.05 13.67L119.05 13.67Q119.01 13.70 118.95 13.71L118.95 13.71L118.95 13.71Q118.88 13.73 118.82 13.70L118.82 13.70L118.82 13.70Q118.70 13.63 118.60 13.50L118.60 13.50L118.60 13.50Q118.50 13.38 118.48 13.18L118.48 13.18L118.48 13.18Q118.46 13.04 118.45 12.86L118.45 12.86L118.45 12.86Q118.44 12.67 118.43 12.46L118.43 12.46L118.43 12.46Q118.43 12.24 118.42 12.01L118.42 12.01L118.42 12.01Q118.42 11.79 118.42 11.57L118.42 11.57L118.42 11.57Q118.25 12.02 118.03 12.38L118.03 12.38L118.03 12.38Q117.80 12.74 117.54 13.00L117.54 13.00L117.54 13.00Q117.28 13.25 116.99 13.42L116.99 13.42L116.99 13.42Q116.70 13.58 116.42 13.64L116.42 13.64L116.42 13.64Q116.05 13.71 115.65 13.63L115.65 13.63L115.65 13.63Q115.25 13.54 114.91 13.34L114.91 13.34L114.91 13.34Q114.56 13.14 114.31 12.84L114.31 12.84L114.31 12.84Q114.06 12.54 113.98 12.18L113.98 12.18L113.98 12.18Q113.93 11.93 113.91 11.69L113.91 11.69L113.91 11.69Q113.89 11.45 113.89 11.23L113.89 11.23L113.89 11.23Q113.89 10.65 114.03 10.18L114.03 10.18L114.03 10.18Q114.17 9.71 114.40 9.33L114.40 9.33L114.40 9.33Q114.63 8.96 114.90 8.69L114.90 8.69L114.90 8.69Q115.17 8.42 115.42 8.23L115.42 8.23L115.42 8.23Q115.67 8.05 115.87 7.95L115.87 7.95L115.87 7.95Q116.07 7.85 116.16 7.83L116.16 7.83L116.16 7.83Q116.32 7.79 116.48 7.77L116.48 7.77L116.48 7.77Q116.65 7.76 116.80 7.76L116.80 7.76L116.80 7.76Q117.10 7.76 117.36 7.82L117.36 7.82L117.36 7.82Q117.62 7.88 117.83 7.98L117.83 7.98L117.83 7.98Q118.05 8.07 118.22 8.19L118.22 8.19L118.22 8.19Q118.38 8.31 118.51 8.41L118.51 8.41L118.51 8.41Q118.53 8.00 118.55 7.59L118.55 7.59L118.55 7.59Q118.57 7.18 118.59 6.81L118.59 6.81L118.59 6.81Q118.62 6.44 118.64 6.13L118.64 6.13L118.64 6.13Q118.67 5.81 118.70 5.59L118.70 5.59L118.70 5.59Q118.75 5.22 118.81 4.96L118.81 4.96L118.81 4.96Q118.86 4.69 118.91 4.49L118.91 4.49L118.91 4.49Q118.96 4.30 119.01 4.16L119.01 4.16L119.01 4.16Q119.06 4.03 119.11 3.92L119.11 3.92L119.11 3.92Q119.14 3.90 119.20 3.89L119.20 3.89L119.20 3.89Q119.27 3.89 119.35 3.91L119.35 3.91L119.35 3.91Q119.43 3.92 119.52 3.96L119.52 3.96L119.52 3.96Q119.61 3.99 119.68 4.04L119.68 4.04L119.68 4.04Q119.75 4.09 119.80 4.14L119.80 4.14L119.80 4.14Q119.85 4.20 119.88 4.29L119.88 4.29L119.88 4.29Q119.90 4.38 119.91 4.51L119.91 4.51L119.91 4.51Q119.91 4.65 119.89 4.86ZM118.41 9.37L118.41 9.37L118.41 9.37Q118.41 9.28 118.41 9.18L118.41 9.18L118.41 9.18Q118.42 9.07 118.43 8.98L118.43 8.98L118.43 8.98Q118.38 9.02 118.33 9.06L118.33 9.06L118.33 9.06Q118.29 9.10 118.27 9.13L118.27 9.13L118.27 9.13Q118.12 9.30 118.06 9.32L118.06 9.32L118.06 9.32Q118.01 9.34 117.95 9.28L117.95 9.28L117.95 9.28Q117.48 8.81 117.06 8.64L117.06 8.64L117.06 8.64Q116.63 8.48 116.28 8.48L116.28 8.48L116.28 8.48Q116.05 8.48 115.87 8.53L115.87 8.53L115.87 8.53Q115.70 8.58 115.60 8.64L115.60 8.64L115.60 8.64Q115.41 8.75 115.26 8.97L115.26 8.97L115.26 8.97Q115.11 9.19 115.00 9.48L115.00 9.48L115.00 9.48Q114.90 9.77 114.84 10.10L114.84 10.10L114.84 10.10Q114.78 10.43 114.78 10.76L114.78 10.76L114.78 10.76Q114.78 11.11 114.85 11.43L114.85 11.43L114.85 11.43Q114.93 11.75 115.08 12.00L115.08 12.00L115.08 12.00Q115.24 12.24 115.49 12.38L115.49 12.38L115.49 12.38Q115.75 12.52 116.11 12.51L116.11 12.51L116.11 12.51Q116.50 12.49 116.83 12.32L116.83 12.32L116.83 12.32Q117.15 12.15 117.41 11.88L117.41 11.88L117.41 11.88Q117.67 11.61 117.85 11.28L117.85 11.28L117.85 11.28Q118.04 10.94 118.16 10.60L118.16 10.60L118.16 10.60Q118.28 10.26 118.34 9.94L118.34 9.94L118.34 9.94Q118.41 9.62 118.41 9.37ZM122.54 4.58L122.54 4.58L122.54 4.58Q122.55 4.72 122.53 4.88L122.53 4.88L122.53 4.88Q122.51 5.05 122.48 5.21L122.48 5.21L122.48 5.21Q122.44 5.37 122.37 5.49L122.37 5.49L122.37 5.49Q122.31 5.61 122.22 5.66L122.22 5.66L122.22 5.66Q121.99 5.78 121.82 5.78L121.82 5.78L121.82 5.78Q121.69 5.78 121.59 5.71L121.59 5.71L121.59 5.71Q121.49 5.65 121.39 5.56L121.39 5.56L121.39 5.56Q121.26 5.46 121.16 5.28L121.16 5.28L121.16 5.28Q121.07 5.10 121.07 4.94L121.07 4.94L121.07 4.94Q121.07 4.81 121.12 4.62L121.12 4.62L121.12 4.62Q121.16 4.43 121.23 4.25L121.23 4.25L121.23 4.25Q121.30 4.07 121.38 3.93L121.38 3.93L121.38 3.93Q121.45 3.78 121.53 3.73L121.53 3.73L121.53 3.73Q121.65 3.63 121.74 3.62L121.74 3.62L121.74 3.62Q121.84 3.61 121.91 3.63L121.91 3.63L121.91 3.63Q122.06 3.66 122.17 3.72L122.17 3.72L122.17 3.72Q122.29 3.77 122.37 3.87L122.37 3.87L122.37 3.87Q122.45 3.98 122.49 4.15L122.49 4.15L122.49 4.15Q122.53 4.32 122.54 4.58ZM121.98 7.64L121.98 7.64L121.98 7.64Q122.01 7.67 122.03 7.86L122.03 7.86L122.03 7.86Q122.05 8.05 122.05 8.36L122.05 8.36L122.05 8.36Q122.05 8.57 122.04 8.80L122.04 8.80L122.04 8.80Q122.04 9.04 122.02 9.30L122.02 9.30L122.02 9.30Q122.01 9.55 122.00 9.81L122.00 9.81L122.00 9.81Q121.99 10.06 121.98 10.29L121.98 10.29L121.98 10.29Q121.96 10.68 121.96 11.00L121.96 11.00L121.96 11.00Q121.95 11.33 121.95 11.63L121.95 11.63L121.95 11.63Q121.95 12.02 121.96 12.35L121.96 12.35L121.96 12.35Q121.97 12.68 121.97 12.90L121.97 12.90L121.97 12.90Q121.97 13.14 121.95 13.27L121.95 13.27L121.95 13.27Q121.93 13.39 121.88 13.41L121.88 13.41L121.88 13.41Q121.82 13.42 121.78 13.46L121.78 13.46L121.78 13.46Q121.73 13.51 121.70 13.55L121.70 13.55L121.70 13.55Q121.67 13.59 121.62 13.62L121.62 13.62L121.62 13.62Q121.58 13.65 121.52 13.64L121.52 13.64L121.52 13.64Q121.48 13.63 121.40 13.58L121.40 13.58L121.40 13.58Q121.32 13.52 121.23 13.44L121.23 13.44L121.23 13.44Q121.13 13.36 121.05 13.26L121.05 13.26L121.05 13.26Q120.97 13.16 120.94 13.05L120.94 13.05L120.94 13.05Q120.93 13.00 120.92 12.83L120.92 12.83L120.92 12.83Q120.91 12.67 120.90 12.43L120.90 12.43L120.90 12.43Q120.89 12.20 120.89 11.92L120.89 11.92L120.89 11.92Q120.88 11.63 120.88 11.34L120.88 11.34L120.88 11.34Q120.87 11.05 120.87 10.77L120.87 10.77L120.87 10.77Q120.87 10.49 120.87 10.27L120.87 10.27L120.87 10.27Q120.87 9.92 120.90 9.56L120.90 9.56L120.90 9.56Q120.92 9.19 120.95 8.88L120.95 8.88L120.95 8.88Q120.98 8.57 121.01 8.33L121.01 8.33L121.01 8.33Q121.04 8.09 121.06 8.00L121.06 8.00L121.06 8.00Q121.08 7.83 121.12 7.74L121.12 7.74L121.12 7.74Q121.15 7.65 121.18 7.61L121.18 7.61L121.18 7.61Q121.22 7.57 121.26 7.56L121.26 7.56L121.26 7.56Q121.30 7.55 121.34 7.54L121.34 7.54L121.34 7.54Q121.42 7.53 121.53 7.53L121.53 7.53L121.53 7.53Q121.63 7.54 121.73 7.55L121.73 7.55L121.73 7.55Q121.82 7.57 121.90 7.59L121.90 7.59L121.90 7.59Q121.97 7.62 121.98 7.64ZM127.91 10.62L127.91 10.62L127.91 10.62Q127.91 11.33 127.71 11.91L127.71 11.91L127.71 11.91Q127.50 12.48 127.14 12.89L127.14 12.89L127.14 12.89Q126.78 13.29 126.31 13.51L126.31 13.51L126.31 13.51Q125.84 13.73 125.31 13.73L125.31 13.73L125.31 13.73Q125.09 13.73 124.83 13.68L124.83 13.68L124.83 13.68Q124.57 13.62 124.31 13.51L124.31 13.51L124.31 13.51Q124.05 13.39 123.81 13.20L123.81 13.20L123.81 13.20Q123.56 13.01 123.37 12.73L123.37 12.73L123.37 12.73Q123.18 12.45 123.06 12.07L123.06 12.07L123.06 12.07Q122.95 11.70 122.96 11.20L122.96 11.20L122.96 11.20Q122.96 10.64 123.09 10.18L123.09 10.18L123.09 10.18Q123.23 9.72 123.45 9.35L123.45 9.35L123.45 9.35Q123.66 8.99 123.94 8.72L123.94 8.72L123.94 8.72Q124.21 8.46 124.48 8.27L124.48 8.27L124.48 8.27Q124.76 8.09 125.01 8.00L125.01 8.00L125.01 8.00Q125.26 7.92 125.45 7.90L125.45 7.90L125.45 7.90Q125.54 7.90 125.53 7.92L125.53 7.92L125.53 7.92Q125.52 7.95 125.48 7.98L125.48 7.98L125.48 7.98Q125.44 8.02 125.41 8.05L125.41 8.05L125.41 8.05Q125.38 8.09 125.43 8.09L125.43 8.09L125.43 8.09Q125.48 8.11 125.51 8.12L125.51 8.12L125.51 8.12Q125.54 8.13 125.58 8.16L125.58 8.16L125.63 8.09L125.63 8.09Q125.68 8.06 125.72 8.06L125.72 8.06L125.72 8.06Q125.77 8.06 125.80 8.07L125.80 8.07L125.80 8.07Q125.84 8.08 125.86 8.08L125.86 8.08L125.86 8.08Q125.88 8.08 125.88 8.04L125.88 8.04L125.88 8.04Q125.90 7.96 125.94 7.95L125.94 7.95L125.94 7.95Q125.97 7.94 126.11 7.94L126.11 7.94L126.11 7.94Q126.19 7.94 126.36 7.99L126.36 7.99L126.36 7.99Q126.53 8.04 126.73 8.16L126.73 8.16L126.73 8.16Q126.93 8.27 127.14 8.47L127.14 8.47L127.14 8.47Q127.35 8.66 127.52 8.96L127.52 8.96L127.52 8.96Q127.70 9.26 127.80 9.67L127.80 9.67L127.80 9.67Q127.91 10.08 127.91 10.62ZM125.45 8.61L125.45 8.61L125.45 8.61Q125.21 8.76 124.97 9.00L124.97 9.00L124.97 9.00Q124.74 9.25 124.55 9.57L124.55 9.57L124.55 9.57Q124.37 9.89 124.25 10.29L124.25 10.29L124.25 10.29Q124.13 10.68 124.13 11.12L124.13 11.12L124.13 11.12Q124.13 11.59 124.22 11.98L124.22 11.98L124.22 11.98Q124.30 12.36 124.47 12.63L124.47 12.63L124.47 12.63Q124.63 12.90 124.87 13.05L124.87 13.05L124.87 13.05Q125.10 13.19 125.41 13.19L125.41 13.19L125.41 13.19Q125.67 13.19 125.94 13.04L125.94 13.04L125.94 13.04Q126.20 12.89 126.40 12.59L126.40 12.59L126.40 12.59Q126.61 12.29 126.73 11.85L126.73 11.85L126.73 11.85Q126.86 11.40 126.86 10.81L126.86 10.81L126.86 10.81Q126.86 10.22 126.70 9.82L126.70 9.82L126.70 9.82Q126.55 9.41 126.35 9.16L126.35 9.16L126.35 9.16Q126.16 8.91 125.98 8.81L125.98 8.81L125.98 8.81Q125.80 8.70 125.76 8.70L125.76 8.70L125.76 8.70Q125.67 8.70 125.61 8.70L125.61 8.70L125.61 8.70Q125.56 8.70 125.45 8.61Z"></path></g><!----><g data-v-423bf9ae="" id="f18e0852-9324-4754-a27d-317152065fc3" transform="matrix(1.0843242924258398,0,0,1.0843242924258398,220.65878537870802,-8.695675412513182)" stroke="none" fill="black"><path d="M50 8.25c-14.98 0-27.125 12.145-27.125 27.125v47.126a8.75 8.75 0 0 0 8.75 8.75c3.219 0 6.021-1.744 7.538-4.334h.01c.363-.503.951-.834 1.619-.834s1.256.331 1.619.834h.01c1.518 2.59 4.319 4.334 7.538 4.334 3.218 0 6.021-1.744 7.537-4.334h.01c.363-.503.951-.834 1.619-.834s1.256.331 1.619.834h.011c1.517 2.59 4.319 4.334 7.537 4.334a8.75 8.75 0 0 0 8.75-8.75c0-3.523.083-47.126.083-47.126C77.125 20.395 64.98 8.25 50 8.25zM30.667 34.167a8.227 8.227 0 0 1 3.187-6.504l2.777 2.552c-1.368.793-2.298 2.257-2.298 3.952a4.584 4.584 0 0 0 4.584 4.584 4.574 4.574 0 0 0 4.135-2.635l2.775 2.55a8.234 8.234 0 0 1-6.91 3.751 8.25 8.25 0 0 1-8.25-8.25zM50 60.396c-7.127 0-13.019-5.27-14-12.125h4.034L44 54l2.864-5.728h5.771L55.5 54l3.966-5.728H64c-.981 6.855-6.873 12.124-14 12.124zm11.084-17.979c-2.956 0-5.541-1.56-6.998-3.895l2.743-2.671a4.578 4.578 0 0 0 8.839-1.684 4.584 4.584 0 0 0-2.781-4.214l2.741-2.669a8.249 8.249 0 0 1-4.544 15.133z"></path></g><!----></svg>